<svg width="495" height="453" viewBox="0 0 495 453" fill="none" xmlns="http://www.w3.org/2000/svg">
<mask id="mask0_27_111" style="mask-type:luminance" maskUnits="userSpaceOnUse" x="11" y="21" width="467" height="419">
<path d="M11.7443 21.2014H477.849V439.995H11.7443V21.2014Z" fill="white"/>
</mask>
<g mask="url(#mask0_27_111)">
<path d="M423.734 348.596L406.393 323.246H399.704C392.916 332.049 385.755 340.535 378.282 348.596H423.734ZM82.0865 63.4447C82.0865 63.832 82.1208 64.2151 82.1765 64.5857C86.4848 61.7417 90.943 59.0434 95.5383 56.4951C94.1593 55.5874 92.4976 55.0544 90.7117 55.0544C85.9537 55.0544 82.0865 58.8144 82.0865 63.4447ZM477.643 363.749H457.536L466.641 439.995H452.033L442.928 363.749H391.434L382.329 439.995H367.721L376.83 363.749H363.348C324.402 400.833 278.814 425.825 234.129 425.825C214.154 425.825 194.369 422.04 175.311 415.224L178.274 439.995H163.666L159.966 409.015C139.362 399.705 119.842 386.905 102.129 371.598L93.9623 439.995H79.3542L88.4591 363.749H69.4613V348.596H78.5619C38.121 304.117 11.7443 246.321 11.7443 191.499C11.7443 140.374 34.682 100.766 70.5748 72.9011C69.9538 71.6561 69.457 70.3611 69.093 69.0203L62.5235 67.6129V59.2725L69.093 57.865C69.6026 55.9913 70.365 54.1966 71.3671 52.5227L67.744 47.0138L73.8168 41.1135L79.4827 44.6362C81.2043 43.6576 83.0458 42.9164 84.973 42.4251L86.4205 36.0334H95.0029L96.4462 42.4251C98.3777 42.9164 100.219 43.6576 101.945 44.6362L107.607 41.1135L113.675 47.0138L113.234 47.6842C116.497 46.2351 119.817 44.8485 123.178 43.5244V36.0334H145.101C162.746 30.8535 181.362 27.2975 200.45 25.382C200.429 25.2238 200.399 25.0656 200.399 24.899C200.399 22.9628 202.026 21.3846 204.017 21.3846C205.953 21.3846 207.525 22.8753 207.615 24.7366C216.386 24.0496 225.238 23.704 234.129 23.704C348.334 23.704 468.457 40.4847 468.457 151.529C468.457 202.779 442.864 265.151 404.076 317.467H434.389L455.682 348.596H477.643V363.749ZM65.0074 28.4176C67.0031 28.4176 68.6219 26.8394 68.6219 24.899C68.6219 22.9628 67.0031 21.3846 65.0074 21.3846C63.0117 21.3846 61.3928 22.9628 61.3928 24.899C61.3928 26.8394 63.0117 28.4176 65.0074 28.4176ZM342.586 24.899C342.586 22.9628 344.214 21.3846 346.205 21.3846C348.201 21.3846 349.824 22.9628 349.824 24.899C349.824 26.8394 348.201 28.4176 346.205 28.4176C344.214 28.4176 342.586 26.8394 342.586 24.899Z" fill="#929937"/>
</g>
<mask id="mask1_27_111" style="mask-type:luminance" maskUnits="userSpaceOnUse" x="50" y="21" width="424" height="419">
<path d="M50.7505 21.2014H473.849V439.995H50.7505V21.2014Z" fill="white"/>
</mask>
<g mask="url(#mask1_27_111)">
<path d="M336.295 27.4432C337.743 27.4432 338.916 26.3064 338.916 24.899C338.916 23.4999 337.743 22.359 336.295 22.359C334.852 22.359 333.678 23.4999 333.678 24.899C333.678 26.3064 334.852 27.4432 336.295 27.4432ZM395.494 103.589H407.678V100.67H395.494V103.589ZM390.766 64.2192L374.166 54.5755V73.863L390.766 64.2192ZM432.247 90.8477H332.685V40.2807H432.247V90.8477ZM412.98 97.4268H404.496V100.346H412.98V97.4268ZM395.494 97.4268V100.346H403.978V97.4268H395.494ZM412.98 94.1872H395.494V97.1061H412.98V94.1872ZM133.007 103.752H122.827V104.726H133.007V103.752ZM138.309 101.482V100.508H131.829V101.482H138.309ZM129.307 100.508H122.827V101.482H129.307V100.508ZM138.309 97.2685H122.827V98.2429H138.309V97.2685ZM69.1444 103.752H58.9646V104.726H69.1444V103.752ZM74.4463 101.482V100.508H67.9667V101.482H74.4463ZM65.4442 100.508H58.9646V101.482H65.4442V100.508ZM74.4463 97.2685H58.9646V98.2429H74.4463V97.2685ZM141.983 73.5548H124.181V79.6134H141.983V73.5548ZM141.983 47.122H124.181V53.1806H141.983V47.122ZM55.1016 27.4432C56.5406 27.4432 57.7141 26.3064 57.7141 24.899C57.7141 23.4999 56.5406 22.359 55.1016 22.359C53.6541 22.359 52.485 23.4999 52.485 24.899C52.485 26.3064 53.6541 27.4432 55.1016 27.4432ZM75.8167 63.4447C75.8167 71.427 82.4976 77.9228 90.7117 77.9228C98.9258 77.9228 105.607 71.427 105.607 63.4447C105.607 55.4583 98.9258 48.9583 90.7117 48.9583C82.4976 48.9583 75.8167 55.4583 75.8167 63.4447ZM74.8146 63.4447C74.8146 54.917 81.9452 47.984 90.7117 47.984C99.4783 47.984 106.609 54.917 106.609 63.4447C106.609 71.9642 99.4783 78.8972 90.7117 78.8972C81.9452 78.8972 74.8146 71.9642 74.8146 63.4447ZM264.608 150.692C263.794 150.692 263.045 151.337 262.946 152.133C262.839 152.924 263.422 153.569 264.24 153.569C265.053 153.569 265.799 152.924 265.901 152.133C266.004 151.337 265.426 150.692 264.608 150.692ZM307.066 151.154H292.175C291.623 151.154 291.173 151.591 291.173 152.129C291.173 152.666 291.623 153.099 292.175 153.099H307.066C307.619 153.099 308.068 152.666 308.068 152.129C308.068 151.591 307.619 151.154 307.066 151.154ZM194.107 28.4176C196.103 28.4176 197.726 26.8394 197.726 24.899C197.726 22.9628 196.103 21.3846 194.107 21.3846C192.116 21.3846 190.493 22.9628 190.493 24.899C190.493 26.8394 192.116 28.4176 194.107 28.4176ZM221.084 93.8333C221.084 95.3698 222.368 96.619 223.949 96.619H245.61C247.186 96.619 248.471 95.3698 248.471 93.8333C248.471 92.3009 247.186 91.0518 245.61 91.0518H223.949C222.368 91.0518 221.084 92.3009 221.084 93.8333ZM201.276 79.6967H222.938C224.518 79.6967 225.803 78.4475 225.803 76.911C225.803 75.3745 224.518 74.1294 222.938 74.1294H201.276C199.696 74.1294 198.411 75.3745 198.411 76.911C198.411 78.4475 199.696 79.6967 201.276 79.6967ZM201.276 62.7702H238.809C240.39 62.7702 241.67 61.521 241.67 59.9845C241.67 58.4522 240.39 57.2071 238.809 57.2071H201.276C199.696 57.2071 198.411 58.4522 198.411 59.9845C198.411 61.521 199.696 62.7702 201.276 62.7702ZM246.047 79.6967H253.709C255.285 79.6967 256.57 78.4475 256.57 76.911C256.57 75.3745 255.285 74.1294 253.709 74.1294H246.047C244.467 74.1294 243.182 75.3745 243.182 76.911C243.182 78.4475 244.467 79.6967 246.047 79.6967ZM238.236 79.6967C239.816 79.6967 241.101 78.4475 241.101 76.911C241.101 75.3745 239.816 74.1294 238.236 74.1294H230.578C228.998 74.1294 227.713 75.3745 227.713 76.911C227.713 78.4475 228.998 79.6967 230.578 79.6967H238.236ZM201.276 54.309H208.938C210.514 54.309 211.799 53.0598 211.799 51.5275C211.799 49.991 210.514 48.7418 208.938 48.7418H201.276C199.696 48.7418 198.411 49.991 198.411 51.5275C198.411 53.0598 199.696 54.309 201.276 54.309ZM201.276 45.8479H227.075C228.651 45.8479 229.936 44.6029 229.936 43.0664C229.936 41.5299 228.651 40.2807 227.075 40.2807H201.276C199.696 40.2807 198.411 41.5299 198.411 43.0664C198.411 44.6029 199.696 45.8479 201.276 45.8479ZM256.989 413.6H74.9388C67.4399 413.6 61.3586 419.509 61.3586 426.796C61.3586 434.087 67.4399 439.995 74.9388 439.995H256.989C264.488 439.995 270.565 434.087 270.565 426.796C270.565 419.509 264.488 413.6 256.989 413.6ZM467.027 137.871C467.027 137.334 466.577 136.897 466.025 136.897H416.847C416.29 136.897 415.845 137.334 415.845 137.871C415.845 138.408 416.29 138.841 416.847 138.841H466.025C466.577 138.841 467.027 138.408 467.027 137.871ZM443.918 153.099H452.35C452.903 153.099 453.352 152.666 453.352 152.129C453.352 151.591 452.903 151.154 452.35 151.154H443.918C443.369 151.154 442.92 151.591 442.92 152.129C442.92 152.666 443.369 153.099 443.918 153.099ZM463.746 158.483C463.746 157.946 463.297 157.513 462.748 157.513H443.1C442.547 157.513 442.098 157.946 442.098 158.483C442.098 159.02 442.547 159.457 443.1 159.457H462.748C463.297 159.457 463.746 159.02 463.746 158.483ZM442.277 165.811H452.367C452.92 165.811 453.365 165.374 453.365 164.837C453.365 164.3 452.92 163.867 452.367 163.867H442.277C441.729 163.867 441.28 164.3 441.28 164.837C441.28 165.374 441.729 165.811 442.277 165.811ZM436.367 206.352C435.811 206.352 435.365 206.785 435.365 207.326C435.365 207.859 435.811 208.296 436.367 208.296H444.796C445.344 208.296 445.793 207.859 445.793 207.326C445.793 206.785 445.344 206.352 444.796 206.352H436.367ZM456.192 213.676C456.192 213.143 455.742 212.706 455.19 212.706H435.541C434.993 212.706 434.543 213.143 434.543 213.676C434.543 214.217 434.993 214.65 435.541 214.65H455.19C455.742 214.65 456.192 214.217 456.192 213.676ZM445.811 220.034C445.811 219.493 445.365 219.06 444.808 219.06H434.723C434.17 219.06 433.721 219.493 433.721 220.034C433.721 220.567 434.17 221.005 434.723 221.005H444.808C445.365 221.005 445.811 220.567 445.811 220.034ZM424.282 159.216C424.282 158.683 423.836 158.245 423.284 158.245H406.432C405.875 158.245 405.43 158.683 405.43 159.216C405.43 159.757 405.875 160.19 406.432 160.19H423.284C423.836 160.19 424.282 159.757 424.282 159.216ZM415.841 171.928C415.841 171.387 415.395 170.954 414.843 170.954H400.115C399.567 170.954 399.117 171.387 399.117 171.928C399.117 172.461 399.567 172.898 400.115 172.898H414.843C415.395 172.898 415.841 172.461 415.841 171.928ZM412.32 251.743C412.32 251.206 411.875 250.769 411.323 250.769H384.809C384.256 250.769 383.807 251.206 383.807 251.743C383.807 252.276 384.256 252.713 384.809 252.713H411.323C411.875 252.713 412.32 252.276 412.32 251.743ZM337.1 145.042H263.974C261.212 145.042 258.689 147.219 258.343 149.905L257.139 159.216H340.269L341.473 149.905C341.824 147.219 339.862 145.042 337.1 145.042ZM328.723 218.152C328.723 217.611 328.274 217.178 327.721 217.178H318.796C318.248 217.178 317.798 217.611 317.798 218.152C317.798 218.689 318.248 219.122 318.796 219.122H327.721C328.274 219.122 328.723 218.689 328.723 218.152ZM307.199 222.82C307.199 222.283 306.749 221.85 306.197 221.85H297.841C297.289 221.85 296.839 222.283 296.839 222.82C296.839 223.357 297.289 223.794 297.841 223.794H306.197C306.749 223.794 307.199 223.357 307.199 222.82ZM289.901 218.152C289.901 217.611 289.452 217.178 288.899 217.178H279.974C279.422 217.178 278.976 217.611 278.976 218.152C278.976 218.689 279.422 219.122 279.974 219.122H288.899C289.452 219.122 289.901 218.689 289.901 218.152ZM265.597 255.736H257.979C256.929 255.736 255.97 256.561 255.837 257.585C255.709 258.601 256.45 259.43 257.503 259.43H265.122C266.167 259.43 267.131 258.601 267.263 257.585C267.392 256.561 266.647 255.736 265.597 255.736ZM257.777 243.074C258.591 243.074 259.336 242.428 259.439 241.633C259.542 240.838 258.964 240.192 258.146 240.192C257.332 240.192 256.582 240.838 256.484 241.633C256.377 242.428 256.959 243.074 257.777 243.074ZM256.899 222.82C256.899 223.357 257.345 223.794 257.901 223.794H264.038C264.591 223.794 265.041 223.357 265.041 222.82C265.041 222.283 264.591 221.85 264.038 221.85H257.901C257.345 221.85 256.899 222.283 256.899 222.82ZM296.171 171.928C296.171 171.387 295.726 170.954 295.169 170.954H276.278C275.73 170.954 275.28 171.387 275.28 171.928C275.28 172.461 275.73 172.898 276.278 172.898H295.169C295.726 172.898 296.171 172.461 296.171 171.928ZM360.175 277.156C360.175 277.697 360.62 278.13 361.173 278.13H399.421C399.978 278.13 400.423 277.697 400.423 277.156C400.423 276.618 399.978 276.185 399.421 276.185H361.173C360.62 276.185 360.175 276.618 360.175 277.156ZM368.847 210.049C368.847 210.586 369.297 211.019 369.849 211.019H379.935C380.488 211.019 380.937 210.586 380.937 210.049C380.937 209.508 380.488 209.075 379.935 209.075H369.849C369.297 209.075 368.847 209.508 368.847 210.049ZM372.132 184.637C372.132 185.17 372.582 185.607 373.134 185.607H385.288C385.845 185.607 386.291 185.17 386.291 184.637C386.291 184.095 385.845 183.662 385.288 183.662H373.134C372.582 183.662 372.132 184.095 372.132 184.637ZM374.595 165.57C374.595 166.107 375.044 166.544 375.597 166.544H384.021C384.577 166.544 385.023 166.107 385.023 165.57C385.023 165.037 384.577 164.6 384.021 164.6H375.597C375.044 164.6 374.595 165.037 374.595 165.57ZM408.085 184.637C408.085 184.095 407.639 183.662 407.087 183.662H389.661C389.108 183.662 388.659 184.095 388.659 184.637C388.659 185.17 389.108 185.607 389.661 185.607H407.087C407.639 185.607 408.085 185.17 408.085 184.637ZM410.736 204.665C411.293 204.665 411.738 204.232 411.738 203.695C411.738 203.158 411.293 202.721 410.736 202.721H396.012C395.46 202.721 395.01 203.158 395.01 203.695C395.01 204.232 395.46 204.665 396.012 204.665H410.736ZM473.408 141.115L457.913 276.981C457.459 280.995 453.978 284.022 449.823 284.022H232.878C230.531 284.022 228.377 283.085 226.814 281.386C226.501 281.049 226.236 280.691 225.996 280.316C223.739 295.881 212.947 313.444 212.947 327.14C212.947 342.176 224.737 363.749 224.737 363.749C224.737 363.749 220.553 397.427 178.073 397.427C162.72 397.427 151.881 394.812 146.305 393.038C143.41 392.122 141.277 389.753 140.626 386.863C135.684 365.069 139.033 334.127 142.514 323.246C144.87 315.893 142.099 278.221 133.016 251.368C128.377 237.669 138.874 223.574 153.705 223.574L157.217 212.706C157.217 212.706 168.39 207.455 180.193 209.787C191.996 212.123 197.632 215.275 202.03 215.875L199.182 223.632C204.047 224.048 208.403 226.867 210.63 231.165C215.431 240.442 223.067 256.377 225.572 268.349L240.278 139.37C240.737 135.356 244.214 132.329 248.373 132.329H465.314C467.661 132.329 469.815 133.266 471.378 134.965C472.945 136.664 473.665 138.846 473.408 141.115ZM270.21 150.692C269.396 150.692 268.651 151.337 268.544 152.133C268.441 152.924 269.019 153.569 269.837 153.569C270.655 153.569 271.4 152.924 271.503 152.133C271.606 151.337 271.028 150.692 270.21 150.692ZM275.811 150.692C274.993 150.692 274.248 151.337 274.145 152.133C274.043 152.924 274.625 153.569 275.439 153.569C276.257 153.569 277.002 152.924 277.105 152.133C277.208 151.337 276.629 150.692 275.811 150.692ZM122.51 146.249H110.6V171.504H122.51V146.249ZM80.7289 171.504H92.6346V149.751H80.7289V171.504ZM62.7633 171.504H50.8533V157.338H62.7633V171.504Z" fill="#CC7642"/>
</g>
<mask id="mask2_27_111" style="mask-type:luminance" maskUnits="userSpaceOnUse" x="11" y="15" width="455" height="412">
<path d="M11.7443 15.8716H465.078V426.271H11.7443V15.8716Z" fill="white"/>
</mask>
<g mask="url(#mask2_27_111)">
<path d="M90.7117 72.8053C96.0265 72.8053 100.339 68.6122 100.339 63.4447C100.339 58.2731 96.0265 54.0842 90.7117 54.0842C85.397 54.0842 81.0886 58.2731 81.0886 63.4447C81.0886 68.6122 85.397 72.8053 90.7117 72.8053ZM62.3907 24.899C62.3907 26.3064 63.5641 27.4432 65.0073 27.4432C66.4549 27.4432 67.624 26.3064 67.624 24.899C67.624 23.4999 66.4549 22.359 65.0073 22.359C63.5641 22.359 62.3907 23.4999 62.3907 24.899ZM69.0202 47.1512L72.5448 52.506C71.3414 54.3881 70.4463 56.4701 69.911 58.6853L63.5256 60.0511V66.83L69.911 68.2C70.4463 70.4194 71.3414 72.5013 72.5448 74.3793L69.0202 79.7383L73.9538 84.531L79.4655 81.1082C81.4013 82.2741 83.5383 83.1444 85.8167 83.6649L87.2257 89.8775H94.1978L95.6068 83.6649C97.8851 83.1444 100.026 82.2741 101.958 81.1082L107.474 84.531L112.403 79.7383L108.879 74.3793C110.078 72.5013 110.977 70.4194 111.512 68.2L117.898 66.83V60.0511L111.512 58.6853C110.977 56.4701 110.078 54.3881 108.879 52.506L112.403 47.1512L107.474 42.3501L101.958 45.7771C100.026 44.6112 97.8851 43.7367 95.6068 43.2204L94.1978 37.0078H87.2257L85.8167 43.2204C83.5383 43.7367 81.4013 44.6112 79.4655 45.7771L73.9538 42.3501L69.0202 47.1512ZM124.18 69.4991H151.384V63.4447H124.18V69.4991ZM124.18 43.0663H151.384V37.0078H124.18V43.0663ZM95.731 97.2685H80.2492V98.2429H95.731V97.2685ZM95.731 100.508H89.2513V101.482H95.731V100.508ZM86.7289 101.482V100.508H80.2492V101.482H86.7289ZM90.4333 103.752H80.2492V104.726H90.4333V103.752ZM163.362 91.5389H181.456V64.7064H163.362V91.5389ZM163.362 63.732H181.456V36.8995H163.362V63.732ZM191.495 93.8333C191.495 94.8368 192.326 95.6446 193.354 95.6446H193.529C194.561 95.6446 195.392 94.8368 195.392 93.8333C195.392 92.8339 194.561 92.0261 193.529 92.0261H193.354C192.326 92.0261 191.495 92.8339 191.495 93.8333ZM191.495 85.3721C191.495 86.3715 192.326 87.1876 193.354 87.1876H193.529C194.561 87.1876 195.392 86.3715 195.392 85.3721C195.392 84.3769 194.561 83.5608 193.529 83.5608H193.354C192.326 83.5608 191.495 84.3769 191.495 85.3721ZM191.495 76.9151C191.495 77.9145 192.326 78.7223 193.354 78.7223H193.529C194.561 78.7223 195.392 77.9145 195.392 76.9151C195.392 75.9116 194.561 75.1038 193.529 75.1038H193.354C192.326 75.1038 191.495 75.9116 191.495 76.9151ZM191.495 68.4498C191.495 69.4492 192.326 70.2611 193.354 70.2611H193.529C194.561 70.2611 195.392 69.4492 195.392 68.4498C195.392 67.4505 194.561 66.6385 193.529 66.6385H193.354C192.326 66.6385 191.495 67.4505 191.495 68.4498ZM191.495 59.9845C191.495 60.988 192.326 61.8 193.354 61.8H193.529C194.561 61.8 195.392 60.988 195.392 59.9845C195.392 58.9851 194.561 58.1773 193.529 58.1773H193.354C192.326 58.1773 191.495 58.9851 191.495 59.9845ZM191.495 51.5275C191.495 52.5268 192.326 53.3388 193.354 53.3388H193.529C194.561 53.3388 195.392 52.5268 195.392 51.5275C195.392 50.5281 194.561 49.7162 193.529 49.7162H193.354C192.326 49.7162 191.495 50.5281 191.495 51.5275ZM191.495 43.0663C191.495 44.0657 192.326 44.8735 193.354 44.8735H193.529C194.561 44.8735 195.392 44.0657 195.392 43.0663C195.392 42.0628 194.561 41.255 193.529 41.255H193.354C192.326 41.255 191.495 42.0628 191.495 43.0663ZM191.495 34.601C191.495 35.6004 192.326 36.4123 193.354 36.4123H193.529C194.561 36.4123 195.392 35.6004 195.392 34.601C195.392 33.6017 194.561 32.7897 193.529 32.7897H193.354C192.326 32.7897 191.495 33.6017 191.495 34.601ZM191.495 24.899C191.495 26.3064 192.664 27.4432 194.107 27.4432C195.555 27.4432 196.728 26.3064 196.728 24.899C196.728 23.4999 195.555 22.359 194.107 22.359C192.664 22.359 191.495 23.4999 191.495 24.899ZM199.409 93.8333C199.409 94.8368 200.249 95.6446 201.276 95.6446H217.071C218.099 95.6446 218.934 94.8368 218.934 93.8333C218.934 92.8339 218.099 92.0261 217.071 92.0261H201.276C200.249 92.0261 199.409 92.8339 199.409 93.8333ZM199.409 85.3721C199.409 86.3715 200.249 87.1876 201.276 87.1876H235.075C236.103 87.1876 236.938 86.3715 236.938 85.3721C236.938 84.3769 236.103 83.5608 235.075 83.5608H201.276C200.249 83.5608 199.409 84.3769 199.409 85.3721ZM199.409 76.9151C199.409 77.9145 200.249 78.7223 201.276 78.7223H222.938C223.966 78.7223 224.805 77.9145 224.805 76.9151C224.805 75.9116 223.966 75.1038 222.938 75.1038H201.276C200.249 75.1038 199.409 75.9116 199.409 76.9151ZM199.409 68.4498C199.409 69.4492 200.249 70.2611 201.276 70.2611H229.876C230.904 70.2611 231.735 69.4492 231.735 68.4498C231.735 67.4505 230.904 66.6385 229.876 66.6385H201.276C200.249 66.6385 199.409 67.4505 199.409 68.4498ZM199.409 59.9845C199.409 60.988 200.249 61.8 201.276 61.8H238.809C239.837 61.8 240.668 60.988 240.668 59.9845C240.668 58.9851 239.837 58.1773 238.809 58.1773H201.276C200.249 58.1773 199.409 58.9851 199.409 59.9845ZM199.409 51.5275C199.409 52.5268 200.249 53.3388 201.276 53.3388H208.938C209.966 53.3388 210.801 52.5268 210.801 51.5275C210.801 50.5281 209.966 49.7162 208.938 49.7162H201.276C200.249 49.7162 199.409 50.5281 199.409 51.5275ZM199.409 43.0663C199.409 44.0657 200.249 44.8735 201.276 44.8735H227.075C228.103 44.8735 228.938 44.0657 228.938 43.0663C228.938 42.0628 228.103 41.255 227.075 41.255H201.276C200.249 41.255 199.409 42.0628 199.409 43.0663ZM199.409 34.601C199.409 35.6004 200.249 36.4123 201.276 36.4123H213.122C214.15 36.4123 214.981 35.6004 214.981 34.601C214.981 33.6017 214.15 32.7897 213.122 32.7897H201.276C200.249 32.7897 199.409 33.6017 199.409 34.601ZM201.401 24.899C201.401 26.3064 202.57 27.4432 204.017 27.4432C205.465 27.4432 206.634 26.3064 206.634 24.899C206.634 23.4999 205.465 22.359 204.017 22.359C202.57 22.359 201.401 23.4999 201.401 24.899ZM255.704 49.7162H218.167C217.139 49.7162 216.309 50.5281 216.309 51.5275C216.309 52.5268 217.139 53.3388 218.167 53.3388H255.704C256.732 53.3388 257.567 52.5268 257.567 51.5275C257.567 50.5281 256.732 49.7162 255.704 49.7162ZM256.501 59.9845C256.501 58.9851 255.67 58.1773 254.642 58.1773H246.981C245.953 58.1773 245.118 58.9851 245.118 59.9845C245.118 60.988 245.953 61.8 246.981 61.8H254.642C255.67 61.8 256.501 60.988 256.501 59.9845ZM255.567 76.9151C255.567 75.9116 254.737 75.1038 253.709 75.1038H246.047C245.019 75.1038 244.184 75.9116 244.184 76.9151C244.184 77.9145 245.019 78.7223 246.047 78.7223H253.709C254.737 78.7223 255.567 77.9145 255.567 76.9151ZM240.099 76.9151C240.099 75.9116 239.268 75.1038 238.236 75.1038H230.574C229.546 75.1038 228.715 75.9116 228.715 76.9151C228.715 77.9145 229.546 78.7223 230.574 78.7223H238.236C239.268 78.7223 240.099 77.9145 240.099 76.9151ZM247.473 93.8333C247.473 92.8339 246.638 92.0261 245.61 92.0261H223.949C222.917 92.0261 222.086 92.8339 222.086 93.8333C222.086 94.8368 222.917 95.6446 223.949 95.6446H245.61C246.638 95.6446 247.473 94.8368 247.473 93.8333ZM298.741 91.5389H322.424V64.7064H298.741V91.5389ZM298.741 63.732H322.424V36.8995H298.741V63.732ZM333.678 89.8775H431.25V41.255H333.678V89.8775ZM343.588 24.899C343.588 26.3064 344.762 27.4432 346.205 27.4432C347.653 27.4432 348.822 26.3064 348.822 24.899C348.822 23.4999 347.653 22.359 346.205 22.359C344.762 22.359 343.588 23.4999 343.588 24.899ZM411.978 95.1616H396.496V96.1318H411.978V95.1616ZM411.978 98.4011H405.498V99.3713H411.978V98.4011ZM402.976 99.3713V98.4011H396.496V99.3713H402.976ZM406.676 101.645H396.496V102.619H406.676V101.645ZM379.969 95.1616H364.488V96.1318H379.969V95.1616ZM379.969 98.4011H373.49V99.3713H379.969V98.4011ZM370.967 99.3713V98.4011H364.488V99.3713H370.967ZM374.667 101.645H364.488V102.619H374.667V101.645ZM46.0781 111.176V20.8558C46.0781 18.1701 48.3179 15.9923 51.0802 15.9923H158.36C161.122 15.9923 163.362 18.1701 163.362 20.8558V35.9293H181.456V20.8558C181.456 18.1701 183.696 15.9923 186.459 15.9923H293.739C296.505 15.9923 298.741 18.1701 298.741 20.8558V35.9293H322.424V20.8558C322.424 18.1701 324.663 15.9923 327.426 15.9923H434.701C437.468 15.9923 439.704 18.1701 439.704 20.8558V91.5389H452.629C452.83 91.8596 453.018 92.1885 453.215 92.5133H439.704V111.176C439.704 113.862 437.468 116.04 434.701 116.04H327.426C324.663 116.04 322.424 113.862 322.424 111.176V92.5133H298.741V101.058C298.741 103.743 296.505 105.921 293.739 105.921H186.459C183.696 105.921 181.456 103.743 181.456 101.058V92.5133H163.362V111.176C163.362 113.862 161.122 116.04 158.36 116.04H51.0802C48.3179 116.04 46.0781 113.862 46.0781 111.176ZM390.44 136.897C389.888 136.897 389.438 137.334 389.438 137.871C389.438 138.408 389.888 138.841 390.44 138.841H410.642C411.198 138.841 411.644 138.408 411.644 137.871C411.644 137.334 411.198 136.897 410.642 136.897H390.44ZM412.32 251.743C412.32 251.206 411.875 250.769 411.323 250.769H384.809C384.256 250.769 383.807 251.206 383.807 251.743C383.807 252.276 384.256 252.713 384.809 252.713H411.323C411.875 252.713 412.32 252.276 412.32 251.743ZM401.241 270.805C401.241 270.264 400.796 269.831 400.243 269.831H361.995C361.443 269.831 360.993 270.264 360.993 270.805C360.993 271.338 361.443 271.776 361.995 271.776H400.243C400.796 271.776 401.241 271.338 401.241 270.805ZM400.423 277.156C400.423 276.618 399.978 276.185 399.421 276.185H361.173C360.62 276.185 360.175 276.618 360.175 277.156C360.175 277.697 360.62 278.13 361.173 278.13H399.421C399.978 278.13 400.423 277.697 400.423 277.156ZM362.633 258.093C362.633 258.634 363.083 259.067 363.635 259.067H394.543C395.096 259.067 395.545 258.634 395.545 258.093C395.545 257.556 395.096 257.123 394.543 257.123H363.635C363.083 257.123 362.633 257.556 362.633 258.093ZM363.46 251.743C363.46 252.276 363.905 252.713 364.462 252.713H377.717C378.269 252.713 378.719 252.276 378.719 251.743C378.719 251.206 378.269 250.769 377.717 250.769H364.462C363.905 250.769 363.46 251.206 363.46 251.743ZM364.282 245.389C364.282 245.926 364.727 246.363 365.28 246.363H403.528C404.081 246.363 404.526 245.926 404.526 245.389C404.526 244.852 404.081 244.418 403.528 244.418H365.28C364.727 244.418 364.282 244.852 364.282 245.389ZM356.92 245.389C356.92 244.852 356.471 244.418 355.918 244.418H349.25C348.698 244.418 348.248 244.852 348.248 245.389C348.248 245.926 348.698 246.363 349.25 246.363H355.918C356.471 246.363 356.92 245.926 356.92 245.389ZM356.094 251.743C356.094 251.206 355.648 250.769 355.096 250.769H348.428C347.875 250.769 347.43 251.206 347.43 251.743C347.43 252.276 347.875 252.713 348.428 252.713H355.096C355.648 252.713 356.094 252.276 356.094 251.743ZM355.276 258.093C355.276 257.556 354.83 257.123 354.274 257.123H347.606C347.053 257.123 346.603 257.556 346.603 258.093C346.603 258.634 347.053 259.067 347.606 259.067H354.274C354.83 259.067 355.276 258.634 355.276 258.093ZM353.631 270.805C353.631 270.264 353.186 269.831 352.633 269.831H345.965C345.413 269.831 344.963 270.264 344.963 270.805C344.963 271.338 345.413 271.776 345.965 271.776H352.633C353.186 271.776 353.631 271.338 353.631 270.805ZM352.813 277.156C352.813 276.618 352.364 276.185 351.811 276.185H345.143C344.586 276.185 344.141 276.618 344.141 277.156C344.141 277.697 344.586 278.13 345.143 278.13H351.811C352.364 278.13 352.813 277.697 352.813 277.156ZM425.554 241.479L420.051 284.022H408.042C408.145 283.872 408.218 283.701 408.218 283.51C408.218 282.973 407.772 282.539 407.215 282.539H380.702C380.149 282.539 379.7 282.973 379.7 283.51C379.7 283.701 379.772 283.872 379.875 284.022H374.44C374.535 283.872 374.612 283.701 374.612 283.51C374.612 282.973 374.162 282.539 373.61 282.539H360.351C359.798 282.539 359.348 282.973 359.348 283.51C359.348 283.701 359.426 283.872 359.52 284.022H351.815C351.918 283.872 351.987 283.701 351.987 283.51C351.987 282.973 351.541 282.539 350.989 282.539H344.321C343.768 282.539 343.323 282.973 343.323 283.51C343.323 283.701 343.391 283.872 343.494 284.022H336.92L342.419 241.479C342.766 238.793 345.289 236.619 348.051 236.619H421.181C423.939 236.619 425.901 238.793 425.554 241.479ZM283.563 255.736H275.944C274.891 255.736 273.936 256.561 273.807 257.585C273.674 258.601 274.415 259.43 275.469 259.43H283.088C284.137 259.43 285.096 258.601 285.229 257.585C285.357 256.561 284.612 255.736 283.563 255.736ZM265.597 255.736H257.979C256.929 255.736 255.97 256.561 255.837 257.585C255.709 258.601 256.45 259.43 257.503 259.43H265.122C266.167 259.43 267.131 258.601 267.263 257.585C267.392 256.561 266.647 255.736 265.597 255.736ZM252.544 240.192C251.726 240.192 250.981 240.837 250.878 241.633C250.779 242.428 251.358 243.074 252.171 243.074C252.989 243.074 253.734 242.428 253.837 241.633C253.944 240.837 253.362 240.192 252.544 240.192ZM257.777 243.074C258.591 243.074 259.336 242.428 259.439 241.633C259.542 240.837 258.964 240.192 258.146 240.192C257.332 240.192 256.582 240.837 256.484 241.633C256.377 242.428 256.959 243.074 257.777 243.074ZM263.375 243.074C264.193 243.074 264.938 242.428 265.041 241.633C265.143 240.837 264.565 240.192 263.747 240.192C262.929 240.192 262.188 240.837 262.081 241.633C261.979 242.428 262.557 243.074 263.375 243.074ZM278.951 249.12H264.047C263.495 249.12 263.045 249.557 263.045 250.094C263.045 250.631 263.495 251.064 264.047 251.064H278.951C279.507 251.064 279.953 250.631 279.953 250.094C279.953 249.557 279.507 249.12 278.951 249.12ZM294.094 236.607C296.856 236.607 298.818 238.789 298.467 241.47L296.368 257.681C296.025 260.366 293.503 262.54 290.745 262.54H248.27C245.508 262.54 243.55 260.366 243.897 257.681L245.991 241.47C246.338 238.789 248.861 236.607 251.623 236.607H294.094ZM271.503 152.133C271.606 151.337 271.028 150.692 270.21 150.692C269.396 150.692 268.651 151.337 268.544 152.133C268.441 152.924 269.019 153.569 269.837 153.569C270.655 153.569 271.4 152.924 271.503 152.133ZM324.308 222.82C324.308 222.283 323.858 221.85 323.306 221.85H318.197C317.64 221.85 317.195 222.283 317.195 222.82C317.195 223.357 317.64 223.794 318.197 223.794H323.306C323.858 223.794 324.308 223.357 324.308 222.82ZM316.976 172.898C317.529 172.898 317.978 172.461 317.978 171.928C317.978 171.387 317.529 170.954 316.976 170.954H302.085C301.537 170.954 301.088 171.387 301.088 171.928C301.088 172.461 301.537 172.898 302.085 172.898H316.976ZM314.077 180.439H277.846C276.372 180.439 275.028 181.601 274.848 183.033L273.747 191.507C273.563 192.935 274.608 194.097 276.081 194.097H312.312C313.786 194.097 315.13 192.935 315.31 191.507L316.407 183.033C316.595 181.601 315.546 180.439 314.077 180.439ZM298.445 219.122H303.554C304.107 219.122 304.556 218.689 304.556 218.152C304.556 217.611 304.107 217.178 303.554 217.178H298.445C297.888 217.178 297.443 217.611 297.443 218.152C297.443 218.689 297.888 219.122 298.445 219.122ZM307.199 222.82C307.199 222.283 306.749 221.85 306.197 221.85H297.841C297.289 221.85 296.839 222.283 296.839 222.82C296.839 223.357 297.289 223.794 297.841 223.794H306.197C306.749 223.794 307.199 223.357 307.199 222.82ZM289.901 218.152C289.901 217.611 289.452 217.178 288.899 217.178H279.974C279.422 217.178 278.976 217.611 278.976 218.152C278.976 218.689 279.422 219.122 279.974 219.122H288.899C289.452 219.122 289.901 218.689 289.901 218.152ZM285.486 222.82C285.486 222.283 285.036 221.85 284.484 221.85H279.37C278.818 221.85 278.368 222.283 278.368 222.82C278.368 223.357 278.818 223.794 279.37 223.794H284.484C285.036 223.794 285.486 223.357 285.486 222.82ZM269.722 218.152C269.722 217.611 269.276 217.178 268.724 217.178H258.501C257.953 217.178 257.503 217.611 257.503 218.152C257.503 218.689 257.953 219.122 258.501 219.122H268.724C269.276 219.122 269.722 218.689 269.722 218.152ZM265.041 222.82C265.041 222.283 264.591 221.85 264.038 221.85H257.901C257.345 221.85 256.899 222.283 256.899 222.82C256.899 223.357 257.345 223.794 257.901 223.794H264.038C264.591 223.794 265.041 223.357 265.041 222.82ZM275.28 171.928C275.28 172.461 275.73 172.898 276.278 172.898H295.169C295.726 172.898 296.171 172.461 296.171 171.928C296.171 171.387 295.726 170.954 295.169 170.954H276.278C275.73 170.954 275.28 171.387 275.28 171.928ZM317.798 218.152C317.798 218.689 318.248 219.122 318.796 219.122H327.721C328.274 219.122 328.723 218.689 328.723 218.152C328.723 217.611 328.274 217.178 327.721 217.178H318.796C318.248 217.178 317.798 217.611 317.798 218.152ZM326.184 229.499H253.054C250.291 229.499 248.334 227.321 248.685 224.636L257.139 159.216H340.269L341.473 149.905L331.811 224.636C331.469 227.321 328.946 229.499 326.184 229.499ZM438.166 277.131H428.076C427.524 277.131 427.074 277.568 427.074 278.101C427.074 278.638 427.524 279.075 428.076 279.075H438.166C438.719 279.075 439.168 278.638 439.168 278.101C439.168 277.568 438.719 277.131 438.166 277.131ZM443.1 270.772H428.898C428.346 270.772 427.901 271.209 427.901 271.747C427.901 272.284 428.346 272.721 428.898 272.721H443.1C443.652 272.721 444.098 272.284 444.098 271.747C444.098 271.209 443.652 270.772 443.1 270.772ZM429.721 266.367H438.149C438.701 266.367 439.147 265.929 439.147 265.396C439.147 264.859 438.701 264.422 438.149 264.422H429.721C429.164 264.422 428.719 264.859 428.719 265.396C428.719 265.929 429.164 266.367 429.721 266.367ZM447.99 192.652H437.901C437.348 192.652 436.903 193.085 436.903 193.622C436.903 194.164 437.348 194.597 437.901 194.597H447.99C448.543 194.597 448.993 194.164 448.993 193.622C448.993 193.085 448.543 192.652 447.99 192.652ZM452.92 186.298H438.723C438.166 186.298 437.721 186.731 437.721 187.272C437.721 187.805 438.166 188.243 438.723 188.243H452.92C453.476 188.243 453.922 187.805 453.922 187.272C453.922 186.731 453.476 186.298 452.92 186.298ZM439.545 179.944C438.993 179.944 438.543 180.381 438.543 180.914C438.543 181.455 438.993 181.888 439.545 181.888H447.969C448.526 181.888 448.971 181.455 448.971 180.914C448.971 180.381 448.526 179.944 447.969 179.944H439.545ZM424.282 159.216C424.282 158.683 423.836 158.245 423.284 158.245H406.432C405.875 158.245 405.43 158.683 405.43 159.216C405.43 159.757 405.875 160.19 406.432 160.19H423.284C423.836 160.19 424.282 159.757 424.282 159.216ZM415.841 171.928C415.841 171.387 415.395 170.954 414.843 170.954H400.115C399.567 170.954 399.117 171.387 399.117 171.928C399.117 172.461 399.567 172.898 400.115 172.898H414.843C415.395 172.898 415.841 172.461 415.841 171.928ZM411.738 203.695C411.738 203.158 411.293 202.721 410.736 202.721H396.012C395.46 202.721 395.01 203.158 395.01 203.695C395.01 204.232 395.46 204.665 396.012 204.665H410.736C411.293 204.665 411.738 204.232 411.738 203.695ZM404.427 210.049C404.427 209.508 403.982 209.075 403.425 209.075H385.631C385.079 209.075 384.633 209.508 384.633 210.049C384.633 210.586 385.079 211.019 385.631 211.019H403.425C403.982 211.019 404.427 210.586 404.427 210.049ZM394.342 216.399C394.342 215.866 393.892 215.429 393.34 215.429H369.027C368.47 215.429 368.025 215.866 368.025 216.399C368.025 216.941 368.47 217.374 369.027 217.374H393.34C393.892 217.374 394.342 216.941 394.342 216.399ZM368.055 159.216C368.055 158.683 367.61 158.245 367.053 158.245H360.389C359.837 158.245 359.387 158.683 359.387 159.216C359.387 159.757 359.837 160.19 360.389 160.19H367.053C367.61 160.19 368.055 159.757 368.055 159.216ZM367.233 165.57C367.233 165.037 366.787 164.6 366.235 164.6H359.567C359.014 164.6 358.569 165.037 358.569 165.57C358.569 166.107 359.014 166.544 359.567 166.544H366.235C366.787 166.544 367.233 166.107 367.233 165.57ZM366.415 171.928C366.415 171.387 365.969 170.954 365.413 170.954H358.749C358.192 170.954 357.747 171.387 357.747 171.928C357.747 172.461 358.192 172.898 358.749 172.898H365.413C365.969 172.898 366.415 172.461 366.415 171.928ZM365.593 178.278C365.593 177.745 365.143 177.308 364.595 177.308H357.922C357.374 177.308 356.925 177.745 356.925 178.278C356.925 178.815 357.374 179.253 357.922 179.253H364.595C365.143 179.253 365.593 178.815 365.593 178.278ZM364.77 184.637C364.77 184.095 364.325 183.662 363.772 183.662H357.104C356.552 183.662 356.102 184.095 356.102 184.637C356.102 185.17 356.552 185.607 357.104 185.607H363.772C364.325 185.607 364.77 185.17 364.77 184.637ZM363.126 197.341C363.126 196.804 362.68 196.371 362.128 196.371H355.46C354.907 196.371 354.462 196.804 354.462 197.341C354.462 197.878 354.907 198.315 355.46 198.315H362.128C362.68 198.315 363.126 197.878 363.126 197.341ZM362.308 203.695C362.308 203.158 361.858 202.721 361.306 202.721H354.638C354.085 202.721 353.635 203.158 353.635 203.695C353.635 204.232 354.085 204.665 354.638 204.665H361.306C361.858 204.665 362.308 204.232 362.308 203.695ZM361.486 210.049C361.486 209.508 361.036 209.075 360.488 209.075H353.815C353.267 209.075 352.817 209.508 352.817 210.049C352.817 210.586 353.267 211.019 353.815 211.019H360.488C361.036 211.019 361.486 210.586 361.486 210.049ZM360.668 216.399C360.668 215.866 360.218 215.429 359.665 215.429H352.997C352.445 215.429 351.995 215.866 351.995 216.399C351.995 216.941 352.445 217.374 352.997 217.374H359.665C360.218 217.374 360.668 216.941 360.668 216.399ZM368.847 210.049C368.847 210.586 369.297 211.019 369.85 211.019H379.935C380.488 211.019 380.937 210.586 380.937 210.049C380.937 209.508 380.488 209.075 379.935 209.075H369.85C369.297 209.075 368.847 209.508 368.847 210.049ZM369.67 203.695C369.67 204.232 370.119 204.665 370.667 204.665H390.316C390.869 204.665 391.318 204.232 391.318 203.695C391.318 203.158 390.869 202.721 390.316 202.721H370.667C370.119 202.721 369.67 203.158 369.67 203.695ZM370.488 197.341C370.488 197.878 370.937 198.315 371.49 198.315H379.918C380.47 198.315 380.916 197.878 380.916 197.341C380.916 196.804 380.47 196.371 379.918 196.371H371.49C370.937 196.371 370.488 196.804 370.488 197.341ZM372.132 184.637C372.132 185.17 372.582 185.607 373.134 185.607H385.288C385.845 185.607 386.291 185.17 386.291 184.637C386.291 184.095 385.845 183.662 385.288 183.662H373.134C372.582 183.662 372.132 184.095 372.132 184.637ZM372.954 178.278C372.954 178.815 373.404 179.253 373.952 179.253H384.042C384.599 179.253 385.044 178.815 385.044 178.278C385.044 177.745 384.599 177.308 384.042 177.308H373.952C373.404 177.308 372.954 177.745 372.954 178.278ZM373.772 171.928C373.772 172.461 374.222 172.898 374.775 172.898H394.423C394.976 172.898 395.425 172.461 395.425 171.928C395.425 171.387 394.976 170.954 394.423 170.954H374.775C374.222 170.954 373.772 171.387 373.772 171.928ZM374.595 165.57C374.595 166.107 375.044 166.544 375.597 166.544H384.021C384.577 166.544 385.023 166.107 385.023 165.57C385.023 165.037 384.577 164.6 384.021 164.6H375.597C375.044 164.6 374.595 165.037 374.595 165.57ZM375.421 159.216C375.421 159.757 375.867 160.19 376.419 160.19H400.732C401.284 160.19 401.734 159.757 401.734 159.216C401.734 158.683 401.284 158.245 400.732 158.245H376.419C375.867 158.245 375.421 158.683 375.421 159.216ZM405.387 166.544C405.944 166.544 406.389 166.107 406.389 165.57C406.389 165.037 405.944 164.6 405.387 164.6H388.53C387.982 164.6 387.532 165.037 387.532 165.57C387.532 166.107 387.982 166.544 388.53 166.544H405.387ZM397.421 178.278C397.421 177.745 396.971 177.308 396.419 177.308H389.738C389.186 177.308 388.74 177.745 388.74 178.278C388.74 178.815 389.186 179.253 389.738 179.253H396.419C396.971 179.253 397.421 178.815 397.421 178.278ZM401.28 196.371H384.423C383.875 196.371 383.425 196.804 383.425 197.341C383.425 197.878 383.875 198.315 384.423 198.315H401.28C401.836 198.315 402.282 197.878 402.282 197.341C402.282 196.804 401.836 196.371 401.28 196.371ZM407.087 185.607C407.639 185.607 408.085 185.17 408.085 184.637C408.085 184.095 407.639 183.662 407.087 183.662H389.661C389.109 183.662 388.659 184.095 388.659 184.637C388.659 185.17 389.109 185.607 389.661 185.607H407.087ZM427.729 224.636C427.382 227.321 424.86 229.499 422.098 229.499H348.967C346.205 229.499 344.248 227.321 344.595 224.636L354.256 149.905C354.603 147.219 357.126 145.042 359.884 145.042H433.014C435.776 145.042 437.734 147.219 437.391 149.905L427.729 224.636ZM166.292 174.955L165.362 167.494C164.467 160.248 166.66 153.403 170.878 148.119H129.906V174.843C129.906 174.885 129.894 174.918 129.894 174.955H166.292ZM121.508 147.223H111.602V170.529H121.508V147.223ZM106.575 148.119V144.305H96.6646V170.529H106.575V148.119ZM91.6368 150.721H81.7268V170.529H91.6368V150.721ZM76.6989 162.43H66.7889V170.529H76.6989V162.43ZM61.7611 158.308H51.8554V170.529H61.7611V158.308ZM163.007 203.733H12.1896C12.1639 203.408 12.1382 203.083 12.1168 202.758H163.29L166.03 193.364C167.212 189.313 167.551 185.082 167.033 180.906L166.416 175.926H129.769C129.264 178.091 127.281 179.706 124.904 179.706H51.0802C48.6991 179.706 46.7205 178.091 46.2109 175.926H12.4808C12.5108 175.601 12.5536 175.276 12.5879 174.955H46.091C46.091 174.918 46.0781 174.885 46.0781 174.843V148.119H17.8127C17.9027 147.794 18.0097 147.473 18.1082 147.149H46.0781V137.193C46.0781 134.507 48.3179 132.329 51.0802 132.329H124.904C127.662 132.329 129.906 134.507 129.906 137.193V147.149H171.692C176.656 141.502 184.03 137.871 192.369 137.871C200.604 137.871 208.047 141.444 213.058 147.149H239.392L239.285 148.119H213.876C216.895 151.908 218.891 156.526 219.426 161.606L219.7 164.179L225.396 174.955H236.223L236.111 175.926H225.765C225.786 176.542 225.392 177.141 224.732 177.325L222.497 177.962C221.846 178.145 221.418 178.745 221.469 179.403C221.816 183.729 222.814 199.16 219.7 200.793C216.073 202.692 198.763 199.285 198.763 199.285C198.433 200.435 198.163 201.592 197.936 202.758H233.049L232.942 203.733H197.765C197.152 207.338 196.998 211.007 197.319 214.646C193.439 213.36 188.257 211.382 180.193 209.787C172.463 208.259 165.011 209.983 160.784 211.357L163.007 203.733ZM140.326 282.04C139.097 274.486 137.474 266.691 135.448 259.342H135.452C135.414 259.213 135.38 259.088 135.345 258.963C134.617 256.365 133.846 253.821 133.016 251.368C130.245 243.178 132.879 234.854 138.617 229.478C138.339 229.599 138.056 229.703 137.782 229.836C137.315 230.065 136.87 230.311 136.429 230.561H15.9969C16.0697 230.89 16.1339 231.21 16.2067 231.535H134.887C126.236 237.573 123.448 249.132 128.797 258.372H23.8727C23.984 258.693 24.0911 259.021 24.2067 259.342H129.354L140.326 282.04ZM234.129 425.825C238.214 425.825 242.304 425.609 246.398 425.201H220.231C224.848 425.6 229.482 425.825 234.129 425.825ZM178.073 397.427C177.105 397.427 176.159 397.415 175.229 397.398H137.739C138.292 397.723 138.844 398.043 139.397 398.368H319.259C319.773 398.048 320.287 397.719 320.796 397.398H179.294C178.883 397.402 178.493 397.427 178.073 397.427ZM138.365 369.591H99.8209C100.189 369.916 100.557 370.241 100.922 370.561H138.425C138.403 370.241 138.386 369.916 138.365 369.591ZM222.861 370.561H355.969C356.329 370.241 356.689 369.916 357.049 369.591H223.216C223.105 369.908 222.985 370.228 222.861 370.561ZM139.157 341.784H72.5491C72.8317 342.113 73.1144 342.434 73.397 342.759H139.054C139.084 342.434 139.118 342.109 139.157 341.784ZM143.307 313.977H51.6969C51.9111 314.306 52.1252 314.627 52.3436 314.952H143.307C143.307 314.635 143.307 314.315 143.307 313.977ZM297.43 327.927C299.773 328.297 302.077 328.651 304.308 328.98L304.055 328.597L298.12 327.373L297.43 327.927ZM349.713 341.784H364.77L360.004 338.557L351.49 340.448L349.713 341.784ZM234.214 286.175H424.988C424.796 286.495 424.603 286.824 424.406 287.145H234.724C241.062 299.083 246.869 309.006 250.377 313.977H406.629C406.393 314.306 406.162 314.627 405.926 314.952H251.079C251.987 316.18 252.702 316.988 253.169 317.288C256.886 319.694 266.068 322.114 276.801 324.279L293.82 318.033C295.559 317.396 297.503 317.612 299.045 318.616L307.456 324.079L310.963 329.946C317.529 330.866 322.925 331.558 325.927 331.932L335.246 331.591L355.233 324.879C357.023 324.279 359.01 324.55 360.556 325.62L368.98 331.433L374.775 341.784H384.432C384.149 342.109 383.862 342.434 383.575 342.759H375.318L375.511 343.108C375.884 343.775 375.601 344.603 374.894 344.92C373.485 344.824 371.871 344.141 370.56 343.187L370.899 345.424C371.057 346.448 370.196 347.351 369.139 347.276C367.485 347.16 366.124 345.969 365.841 344.383L365.545 342.759H348.419L344.325 345.84C342.398 347.285 340.149 348.255 337.777 348.676C336.235 348.95 334.646 348.905 333.087 348.701L323.64 347.431L253.28 346.943C244.788 346.598 238.531 345.032 233.773 342.759H215.829C215.777 342.605 215.73 342.446 215.683 342.288H215.679C215.64 342.159 215.602 342.03 215.563 341.897C215.55 341.863 215.538 341.826 215.529 341.784H215.533C214.026 336.825 212.947 331.682 212.947 327.14C212.947 324.55 213.341 321.822 213.979 318.995C214.146 319.028 214.313 319.057 214.48 319.087L203.927 299.279C203.371 299.395 202.805 299.453 202.227 299.453C196.977 299.453 191.795 294.669 187.906 287.145H36.1852C36.0268 286.824 35.8597 286.499 35.6927 286.175H187.418C184.561 280.316 182.463 272.95 181.658 264.938C181.011 258.513 181.281 252.505 182.279 247.354C182.202 240.617 184.069 234.737 189.234 232.397C189.645 232.21 190.065 232.06 190.48 231.906C191.957 230.944 193.563 230.423 195.294 230.423C195.996 230.423 196.694 230.519 197.392 230.682C204.317 230.832 210.48 235.133 213.396 242.27C219.234 256.548 227.028 272.588 234.206 286.175H234.214ZM226.6 259.342L226.711 258.372H222.711C222.822 258.693 222.934 259.021 223.045 259.342H226.6ZM229.884 230.561H210.291C210.407 230.765 210.523 230.961 210.63 231.165C210.69 231.285 210.758 231.414 210.818 231.535H229.773L229.884 230.561ZM464.551 119.342H29.9326C29.7527 119.666 29.5771 119.991 29.4015 120.316H464.795C464.714 119.991 464.637 119.666 464.551 119.342Z" fill="#EEF0D1"/>
</g>
<mask id="mask3_27_111" style="mask-type:luminance" maskUnits="userSpaceOnUse" x="45" y="22" width="433" height="418">
<path d="M45.7526 22.2673H477.849V439.995H45.7526V22.2673Z" fill="white"/>
</mask>
<g mask="url(#mask3_27_111)">
<path d="M355.678 316.979L327.503 317.063L313.417 317.109L299.332 317.246V317.687L313.417 317.821L327.503 317.866L355.678 317.95L383.845 317.846L397.935 317.791L412.02 317.65V317.279L397.935 317.138L383.845 317.084L355.678 316.979ZM343.862 101.645H333.683V102.619H343.862V101.645ZM349.164 99.3712V98.401H342.685V99.3712H349.164ZM340.162 98.401H333.683V99.3712H340.162V98.401ZM349.164 95.1615H333.683V96.1317H349.164V95.1615ZM356.115 27.4431C357.558 27.4431 358.732 26.3063 358.732 24.8989C358.732 23.4998 357.558 22.3589 356.115 22.3589C354.667 22.3589 353.498 23.4998 353.498 24.8989C353.498 26.3063 354.667 27.4431 356.115 27.4431ZM213.927 27.4431C215.371 27.4431 216.544 26.3063 216.544 24.8989C216.544 23.4998 215.371 22.3589 213.927 22.3589C212.48 22.3589 211.306 23.4998 211.306 24.8989C211.306 26.3063 212.48 27.4431 213.927 27.4431ZM111.718 103.752H101.538V104.726H111.718V103.752ZM117.02 101.482V100.508H110.54V101.482H117.02ZM108.018 100.508H101.538V101.482H108.018V100.508ZM117.02 97.2684H101.538V98.2428H117.02V97.2684ZM74.9173 27.4431C76.3605 27.4431 77.5297 26.3063 77.5297 24.8989C77.5297 23.4998 76.3605 22.3589 74.9173 22.3589C73.4698 22.3589 72.3006 23.4998 72.3006 24.8989C72.3006 26.3063 73.4698 27.4431 74.9173 27.4431ZM56.3093 175.197H57.3071V174.16H71.2428V175.197H72.2449V174.16H86.1806V175.197H87.1828V174.16H101.118V175.197H102.121V174.16H116.056V175.197H117.054V174.16H121.607V173.19H117.054V172.153H116.056V173.19H102.121V172.153H101.118V173.19H87.1828V172.153H86.1806V173.19H72.2449V172.153H71.2428V173.19H57.3071V172.153H56.3093V173.19H51.8553V174.16H56.3093V175.197ZM381.036 137.871C381.036 137.334 380.586 136.897 380.033 136.897H250.809C250.253 136.897 249.807 137.334 249.807 137.871C249.807 138.408 250.253 138.841 250.809 138.841H380.033C380.586 138.841 381.036 138.408 381.036 137.871ZM351.811 276.185H345.143C344.586 276.185 344.141 276.618 344.141 277.155C344.141 277.697 344.586 278.13 345.143 278.13H351.811C352.363 278.13 352.813 277.697 352.813 277.155C352.813 276.618 352.363 276.185 351.811 276.185ZM353.631 270.805C353.631 270.264 353.186 269.831 352.633 269.831H345.965C345.413 269.831 344.963 270.264 344.963 270.805C344.963 271.338 345.413 271.776 345.965 271.776H352.633C353.186 271.776 353.631 271.338 353.631 270.805ZM355.276 258.093C355.276 257.556 354.83 257.123 354.273 257.123H347.605C347.053 257.123 346.603 257.556 346.603 258.093C346.603 258.634 347.053 259.067 347.605 259.067H354.273C354.83 259.067 355.276 258.634 355.276 258.093ZM356.094 251.743C356.094 251.206 355.648 250.768 355.096 250.768H348.428C347.875 250.768 347.43 251.206 347.43 251.743C347.43 252.276 347.875 252.713 348.428 252.713H355.096C355.648 252.713 356.094 252.276 356.094 251.743ZM356.92 245.389C356.92 244.851 356.47 244.418 355.918 244.418H349.25C348.697 244.418 348.248 244.851 348.248 245.389C348.248 245.926 348.697 246.363 349.25 246.363H355.918C356.47 246.363 356.92 245.926 356.92 245.389ZM262.081 241.633C261.978 242.428 262.557 243.073 263.375 243.073C264.193 243.073 264.938 242.428 265.041 241.633C265.143 240.837 264.565 240.192 263.747 240.192C262.929 240.192 262.188 240.837 262.081 241.633ZM274.145 152.133C274.043 152.924 274.625 153.569 275.439 153.569C276.257 153.569 277.002 152.924 277.105 152.133C277.207 151.337 276.629 150.692 275.811 150.692C274.993 150.692 274.248 151.337 274.145 152.133ZM288.95 186.298C288.398 186.298 287.948 186.731 287.948 187.272C287.948 187.805 288.398 188.242 288.95 188.242H301.207C301.76 188.242 302.205 187.805 302.205 187.272C302.205 186.731 301.76 186.298 301.207 186.298H288.95ZM360.667 216.399C360.667 215.866 360.218 215.429 359.665 215.429H352.997C352.445 215.429 351.995 215.866 351.995 216.399C351.995 216.94 352.445 217.374 352.997 217.374H359.665C360.218 217.374 360.667 216.94 360.667 216.399ZM361.485 210.049C361.485 209.508 361.036 209.075 360.488 209.075H353.815C353.267 209.075 352.817 209.508 352.817 210.049C352.817 210.586 353.267 211.019 353.815 211.019H360.488C361.036 211.019 361.485 210.586 361.485 210.049ZM362.308 203.695C362.308 203.158 361.858 202.721 361.306 202.721H354.637C354.085 202.721 353.635 203.158 353.635 203.695C353.635 204.232 354.085 204.665 354.637 204.665H361.306C361.858 204.665 362.308 204.232 362.308 203.695ZM363.126 197.341C363.126 196.804 362.68 196.371 362.128 196.371H355.46C354.907 196.371 354.462 196.804 354.462 197.341C354.462 197.878 354.907 198.315 355.46 198.315H362.128C362.68 198.315 363.126 197.878 363.126 197.341ZM364.77 184.636C364.77 184.095 364.325 183.662 363.772 183.662H357.104C356.552 183.662 356.102 184.095 356.102 184.636C356.102 185.169 356.552 185.607 357.104 185.607H363.772C364.325 185.607 364.77 185.169 364.77 184.636ZM365.592 178.278C365.592 177.745 365.143 177.308 364.595 177.308H357.922C357.374 177.308 356.924 177.745 356.924 178.278C356.924 178.815 357.374 179.253 357.922 179.253H364.595C365.143 179.253 365.592 178.815 365.592 178.278ZM366.415 171.928C366.415 171.387 365.969 170.954 365.413 170.954H358.749C358.192 170.954 357.747 171.387 357.747 171.928C357.747 172.461 358.192 172.898 358.749 172.898H365.413C365.969 172.898 366.415 172.461 366.415 171.928ZM367.233 165.57C367.233 165.037 366.787 164.6 366.235 164.6H359.567C359.014 164.6 358.569 165.037 358.569 165.57C358.569 166.107 359.014 166.544 359.567 166.544H366.235C366.787 166.544 367.233 166.107 367.233 165.57ZM368.055 159.216C368.055 158.683 367.61 158.245 367.053 158.245H360.389C359.837 158.245 359.387 158.683 359.387 159.216C359.387 159.757 359.837 160.19 360.389 160.19H367.053C367.61 160.19 368.055 159.757 368.055 159.216ZM214.801 163.779L219.503 163.55C219.735 160.885 220.527 158.424 221.824 157.804C220.441 157.662 219.101 157.7 218.073 158.137C218.009 154.764 216.638 152.965 215.777 150.846C215.76 153.269 216.441 152.528 216.18 155.776C216.034 157.575 216.411 159.42 215.979 161.177C215.752 162.105 215.306 162.955 214.801 163.779ZM220.51 163.5L224.428 163.313C224.133 160.402 223.174 158.624 222.48 158.624C221.769 158.624 220.784 160.481 220.51 163.5ZM224.501 164.279L220.441 164.479C220.437 164.704 220.433 164.937 220.433 165.178C220.433 169.176 221.64 171.728 222.48 171.728C223.311 171.728 224.527 169.176 224.527 165.178C224.527 164.87 224.514 164.575 224.501 164.279ZM130.189 203.37C129.101 196.42 131.187 189.054 135.786 183.633C137.469 181.643 139.555 179.752 140.073 177.225C140.604 174.622 139.332 172.028 138.754 169.434C137.645 164.483 139.221 159.032 142.823 155.368C145.585 152.557 149.409 150.771 151.743 147.611C153.701 144.962 154.39 141.656 155.731 138.671C159.491 130.301 169.007 124.726 178.373 125.404C180.981 122.248 186.022 120.77 190.116 121.473C194.21 122.177 197.85 124.438 201.037 127.037C211.058 125.542 223.653 134.84 227.156 158.957C226.214 158.683 224.899 158.32 223.516 158.054C224.827 159.136 225.525 162.234 225.525 165.178C225.525 168.822 224.454 172.703 222.48 172.703C220.497 172.703 219.43 168.822 219.43 165.178C219.43 164.962 219.435 164.745 219.443 164.529L217.178 164.637C217.61 164.862 217.936 165.695 217.936 166.694C217.936 167.864 217.49 168.813 216.942 168.813C216.39 168.813 215.949 167.864 215.949 166.694C215.949 165.724 216.253 164.916 216.668 164.662L214.159 164.783C213.568 165.691 212.964 166.598 212.557 167.593C210.702 172.157 213.332 177.329 212.595 182.188C212.129 185.236 210.373 187.939 209.426 190.878C208.082 195.051 209.028 200.822 210.998 204.748H197.122C196.253 201.571 195.135 198.686 195.011 195.4C194.09 198.84 193.683 201.971 193.375 205.519C191.666 201.034 190.536 196.674 190.424 191.898C189.936 195.721 189.769 199.543 189.281 203.37H130.189ZM223.983 334.618C225.516 336.496 227.203 338.27 229.045 339.881C230.878 341.501 232.912 342.938 235.161 344.037C236.291 344.566 237.482 344.99 238.707 345.29C239.961 345.557 241.169 345.686 242.385 345.856C244.822 346.156 247.263 346.452 249.704 346.664C254.591 347.114 259.49 347.414 264.402 347.501C264.522 347.501 264.629 347.41 264.634 347.289C264.642 347.168 264.544 347.068 264.42 347.06C261.974 346.927 259.533 346.731 257.101 346.514C254.659 346.31 252.227 346.077 249.799 345.811C247.366 345.528 244.938 345.257 242.514 344.932C241.306 344.761 240.077 344.616 238.938 344.366C237.79 344.078 236.672 343.67 235.597 343.167C231.289 341.089 227.747 337.699 224.634 334.097C223.071 332.286 221.623 330.375 220.261 328.405C218.887 326.444 217.589 324.425 216.428 322.343L216.424 322.334C216.377 322.247 216.266 322.214 216.171 322.259C216.077 322.305 216.039 322.413 216.086 322.505C218.274 326.794 220.904 330.862 223.983 334.618ZM190.506 275.835C189.953 275.511 189.439 275.136 188.947 274.728C188.458 274.316 188.009 273.845 187.559 273.358C187.503 273.3 187.418 273.279 187.341 273.308C187.242 273.345 187.195 273.454 187.234 273.549C187.752 274.828 188.767 275.919 189.975 276.66C190.583 277.026 191.229 277.326 191.902 277.53C192.467 277.705 193.041 277.826 193.623 277.897C195.551 282.165 197.551 286.399 199.563 290.626C201.859 295.331 204.171 300.024 206.548 304.692C208.929 309.355 211.353 313.994 213.893 318.583C213.949 318.687 214.086 318.732 214.193 318.678C214.304 318.624 214.351 318.491 214.296 318.383C213.114 316.047 211.962 313.702 210.81 311.354L207.345 304.313L200.467 290.214C198.167 285.517 195.927 280.791 193.709 276.06C192.6 273.695 191.516 271.318 190.467 268.932C189.426 266.541 188.356 264.147 187.581 261.678L187.576 261.67C187.551 261.574 187.443 261.52 187.341 261.545C187.238 261.574 187.182 261.674 187.212 261.774C188.694 266.816 190.84 271.601 192.938 276.393C193.058 276.66 193.182 276.922 193.302 277.189C192.942 277.039 192.574 276.889 192.227 276.731C191.632 276.452 191.049 276.169 190.506 275.835ZM216.758 183.491C217.139 183.725 217.563 183.874 217.996 183.979C218.433 184.062 218.878 184.104 219.315 184.062C219.533 184.045 219.743 184.004 219.957 183.974C220.167 183.912 220.377 183.858 220.574 183.779C220.638 183.754 220.685 183.695 220.698 183.633C220.711 183.525 220.638 183.425 220.527 183.412C219.705 183.287 218.951 183.204 218.218 183.033C217.854 182.946 217.503 182.838 217.148 182.721C216.801 182.6 216.445 182.438 216.116 182.284L216.073 182.259C216.009 182.23 215.932 182.23 215.859 182.271C215.752 182.334 215.713 182.467 215.777 182.571C216.026 182.988 216.377 183.254 216.758 183.491ZM423.716 348.567L406.393 323.246V323.026L393.871 322.892L381.344 322.846L356.286 322.763L331.229 322.867L318.702 322.921L306.175 323.063V323.434L306.466 323.438L307.456 324.079L310.77 329.625L304.929 328.818C304.968 328.801 305.006 328.788 305.04 328.772C305.267 328.659 305.46 328.493 305.631 328.314C305.79 328.126 305.935 327.918 306.021 327.689C306.107 327.456 306.167 327.214 306.137 326.956C306.128 326.91 306.111 326.861 306.081 326.823C305.991 326.719 305.828 326.706 305.726 326.794L305.713 326.802C305.529 326.956 305.396 327.106 305.254 327.252C305.113 327.393 304.997 327.539 304.873 327.685C304.749 327.831 304.621 327.972 304.505 328.135C304.381 328.297 304.252 328.455 304.124 328.655L304.12 328.664C304.12 328.672 304.12 328.676 304.115 328.684L304.055 328.597L298.295 327.41C298.329 327.273 298.372 327.139 298.398 327.006C298.501 326.54 298.526 326.065 298.531 325.591C298.518 325.112 298.479 324.637 298.372 324.175C298.269 323.713 298.128 323.25 297.901 322.826C297.863 322.755 297.786 322.705 297.7 322.705C297.571 322.701 297.46 322.805 297.46 322.93C297.451 323.392 297.481 323.837 297.49 324.279L297.529 325.607L297.559 326.931C297.563 327.219 297.571 327.51 297.571 327.797L294.702 327.398C284.706 325.944 274.706 324.466 264.801 322.567C262.33 322.089 259.85 321.601 257.465 320.919C256.878 320.739 256.274 320.552 255.773 320.298C255.507 320.157 255.46 320.123 255.259 319.815L254.749 319.07C254.086 318.029 253.426 316.984 252.784 315.926C250.197 311.712 247.662 307.452 245.135 303.197L236.188 288.09H343.04L348.924 309.972H391.323L385.442 288.09H449.823C456.106 288.09 461.382 283.497 462.072 277.43L477.562 141.565C478.371 134.465 472.658 128.261 465.314 128.261H248.373C242.09 128.261 236.814 132.854 236.124 138.925L222.553 257.935C223.833 261.578 224.891 265.13 225.567 268.39L240.278 139.37C240.737 135.356 244.214 132.329 248.373 132.329H465.314C467.66 132.329 469.815 133.266 471.378 134.965C472.945 136.664 473.665 138.845 473.408 141.115L457.913 276.981C457.459 280.995 453.977 284.022 449.823 284.022H351.815C351.918 283.872 351.987 283.701 351.987 283.51C351.987 282.972 351.541 282.539 350.989 282.539H344.321C343.768 282.539 343.323 282.972 343.323 283.51C343.323 283.701 343.391 283.872 343.494 284.022H233.777L229.991 277.634C229.94 277.551 229.829 277.518 229.734 277.568C229.645 277.613 229.61 277.73 229.662 277.822L233.186 284.022H233.075C233.799 285.404 234.518 286.757 235.229 288.09H235.499L236.998 290.73L244.454 303.576C246.955 307.852 249.452 312.124 252.017 316.367C252.655 317.433 253.31 318.487 253.974 319.544L254.505 320.336C254.617 320.477 254.625 320.569 254.839 320.764C255.019 320.939 255.173 321.006 255.332 321.098C255.957 321.414 256.569 321.601 257.186 321.797C259.644 322.518 262.124 323.021 264.608 323.517C274.561 325.378 284.574 326.79 294.586 328.193L309.618 330.2L324.676 331.995C324.8 332.007 324.916 331.924 324.929 331.807C324.946 331.687 324.856 331.574 324.736 331.557L319.173 330.787L324.089 323.596L331.229 323.629L356.286 323.729L381.344 323.646L393.871 323.604L399.926 323.538L417.044 348.567H410.706L401.618 338.57L397.425 341.247L405.19 348.567H380.021L402.907 334.447H370.663L375.511 343.108C375.884 343.774 375.601 344.603 374.894 344.92C373.588 344.828 372.106 344.228 370.847 343.383C370.847 343.35 370.86 343.329 370.847 343.3C370.308 342.067 370.299 340.701 370.123 339.302C370.046 338.595 369.892 337.874 369.605 337.175C369.318 336.475 368.916 335.842 368.44 335.268C367.468 334.147 366.295 333.261 365.113 332.478C363.927 331.687 362.745 330.95 361.682 330.042C361.614 329.983 361.511 329.979 361.434 330.042C361.353 330.104 361.34 330.217 361.408 330.3C362.329 331.412 363.498 332.282 364.612 333.14C365.725 333.993 366.83 334.834 367.67 335.88C368.094 336.388 368.466 336.933 368.719 337.524C368.984 338.112 369.109 338.761 369.25 339.427C369.455 340.51 369.584 341.705 370.072 342.796C369.455 342.284 368.924 341.722 368.56 341.13L365.374 335.95L359.708 334.622C359.695 334.605 359.691 334.589 359.678 334.58C359.627 334.522 359.545 334.493 359.468 334.518C359.447 334.526 359.438 334.547 359.425 334.551L359.348 334.539L351.378 340.531C351.387 340.485 351.396 340.443 351.4 340.402C351.447 339.998 351.417 339.59 351.357 339.186C351.284 338.786 351.177 338.39 351.002 338.016C350.83 337.649 350.625 337.291 350.338 336.987C350.286 336.933 350.201 336.904 350.124 336.921C349.995 336.937 349.909 337.058 349.931 337.187C349.995 337.57 350.089 337.924 350.158 338.282C350.226 338.645 350.312 338.994 350.372 339.352C350.445 339.702 350.492 340.06 350.556 340.423C350.59 340.635 350.625 340.856 350.659 341.076L344.325 345.84C342.526 347.193 340.441 348.105 338.248 348.567H332.094L324.295 347.518C324.77 347.106 325.203 346.623 325.503 346.052C325.888 345.357 326.072 344.536 325.952 343.77C325.935 343.679 325.858 343.6 325.755 343.583C325.631 343.566 325.516 343.65 325.498 343.774C325.391 344.457 325.143 345.074 324.758 345.619C324.595 345.844 324.402 346.052 324.209 346.256C324.197 345.811 324.137 345.369 324.03 344.936C323.82 344.099 323.464 343.3 322.925 342.642C322.873 342.575 322.783 342.55 322.706 342.579C322.603 342.617 322.556 342.725 322.591 342.821C322.882 343.57 323.092 344.32 323.182 345.082C323.271 345.848 323.267 346.61 323.147 347.355C323.143 347.38 323.152 347.405 323.152 347.43L269.422 347.056L267.07 348.567H217.85C217.979 348.892 218.103 349.217 218.227 349.537H477.643V348.567H423.716ZM69.4612 348.567V349.537H181.306C188.086 349.537 190.034 348.567 190.034 348.567C190.917 348.334 191.76 348.022 192.561 347.643C198.3 344.911 201.76 338.557 200.12 332.007L180.981 255.44C179.435 249.257 173.739 244.906 167.199 244.906H60.2664C51.0802 244.906 44.3179 253.271 46.4849 261.953L65.6283 338.52C66.8702 343.491 70.7974 347.272 75.6925 348.567H69.4612ZM224.737 363.749C224.737 363.749 224.715 363.928 224.66 364.236H224.664C223.962 368.296 217.593 397.427 178.073 397.427C163.606 397.427 153.148 395.104 147.324 393.351C149.392 404.856 159.705 413.6 172.129 413.6H248.154C266.976 413.6 285.344 405.976 285.344 405.976L279.439 439.995H318.201C318.201 439.995 322.685 405.976 324.621 383.153C325.751 369.787 315.627 365.498 307.04 364.236H376.77L372.243 402.136L386.573 404.447L391.378 364.236H442.984L448.988 414.503L463.879 416.902L457.596 364.236H477.643V363.266H224.48C224.642 363.574 224.737 363.749 224.737 363.749ZM138.15 363.266H69.4612V364.236H102.506C102.476 364.382 102.489 364.532 102.446 364.678L102.313 365.656C102.215 366.31 102.176 366.972 102.112 367.63L101.996 369.608L101.945 370.595L101.915 371.094C101.928 371.261 101.804 371.415 102.125 371.615C102.493 371.49 102.403 371.315 102.459 371.157L102.549 370.665L102.729 369.687L103.088 367.738C103.174 367.084 103.294 366.435 103.354 365.777L103.457 364.79C103.444 364.607 103.525 364.428 103.491 364.236H138.168C138.159 363.916 138.155 363.591 138.15 363.266ZM308.068 152.129C308.068 151.591 307.618 151.154 307.066 151.154H292.175C291.623 151.154 291.173 151.591 291.173 152.129C291.173 152.666 291.623 153.099 292.175 153.099H307.066C307.618 153.099 308.068 152.666 308.068 152.129ZM268.544 152.133C268.441 152.924 269.019 153.569 269.837 153.569C270.655 153.569 271.4 152.924 271.503 152.133C271.606 151.337 271.028 150.692 270.21 150.692C269.396 150.692 268.651 151.337 268.544 152.133ZM264.24 153.569C263.422 153.569 262.839 152.924 262.946 152.133C263.045 151.337 263.794 150.692 264.608 150.692C265.426 150.692 266.004 151.337 265.901 152.133C265.799 152.924 265.053 153.569 264.24 153.569Z" fill="#393A3F"/>
</g>
<mask id="mask4_27_111" style="mask-type:luminance" maskUnits="userSpaceOnUse" x="98" y="127" width="387" height="301">
<path d="M98.8958 127.832H484.243V427.337H98.8958V127.832Z" fill="white"/>
</mask>
<g mask="url(#mask4_27_111)">
<path d="M404.312 309.972H396.256L390.376 288.09H385.443L391.323 309.972H307.036C302.783 309.972 299.332 313.324 299.332 317.467H412.021C412.021 313.324 408.573 309.972 404.312 309.972ZM131.735 309.459H115.131C114.069 309.459 113.17 310.234 113.046 311.258L99.6024 424.526C99.4611 425.734 100.433 426.795 101.684 426.795H118.296C119.358 426.795 120.253 426.021 120.377 424.992L133.816 311.729C133.962 310.517 132.99 309.459 131.735 309.459ZM379.267 349.029H386.008L401.353 339.227L410.269 349.029H415.245L402.907 334.447L379.267 349.029ZM471.917 128.261H465.314C472.658 128.261 478.371 134.465 477.562 141.565L462.072 277.43C461.382 283.497 456.106 288.09 449.823 288.09H456.427C462.706 288.09 467.982 283.497 468.676 277.43L484.166 141.565C484.975 134.465 479.258 128.261 471.917 128.261ZM308.068 152.129C308.068 151.591 307.619 151.154 307.066 151.154H292.175C291.623 151.154 291.173 151.591 291.173 152.129C291.173 152.666 291.623 153.099 292.175 153.099H307.066C307.619 153.099 308.068 152.666 308.068 152.129ZM270.21 150.692C269.396 150.692 268.651 151.337 268.544 152.133C268.441 152.924 269.019 153.569 269.837 153.569C270.655 153.569 271.4 152.924 271.503 152.133C271.606 151.337 271.028 150.692 270.21 150.692ZM264.608 150.692C263.794 150.692 263.045 151.337 262.946 152.133C262.839 152.924 263.422 153.569 264.24 153.569C265.053 153.569 265.799 152.924 265.901 152.133C266.004 151.337 265.426 150.692 264.608 150.692ZM277.105 152.133C277.002 152.924 276.257 153.569 275.439 153.569C274.625 153.569 274.043 152.924 274.145 152.133C274.248 151.337 274.993 150.692 275.811 150.692C276.629 150.692 277.208 151.337 277.105 152.133Z" fill="#EEF0D1"/>
</g>
</svg>
