<svg width="149" height="130" viewBox="0 0 149 130" fill="none" xmlns="http://www.w3.org/2000/svg">
<mask id="mask0_38_171" style="mask-type:luminance" maskUnits="userSpaceOnUse" x="4" y="30" width="127" height="97">
<path d="M4.63733 30.4397H130.753V126.424H4.63733V30.4397Z" fill="white"/>
</mask>
<g mask="url(#mask0_38_171)">
<path d="M22.171 30.6309H113.066C113.638 30.6309 114.21 30.662 114.781 30.7243C115.351 30.7846 115.917 30.878 116.48 31.0006C117.041 31.1231 117.596 31.2768 118.145 31.4596C118.693 31.6423 119.233 31.8542 119.762 32.0951C120.292 32.336 120.809 32.606 121.314 32.903C121.82 33.2 122.311 33.524 122.786 33.875C123.264 34.224 123.723 34.5999 124.167 34.9987C124.608 35.3995 125.033 35.8211 125.439 36.2677C125.843 36.7142 126.229 37.1795 126.591 37.6675C126.955 38.1556 127.295 38.6603 127.614 39.1837C127.934 39.7092 128.226 40.2492 128.498 40.8037C128.768 41.3603 129.012 41.9294 129.231 42.513C129.45 43.0946 129.644 43.6865 129.81 44.2909C129.977 44.8932 130.114 45.5038 130.228 46.1228C130.339 46.7417 130.422 47.3627 130.479 47.9899C130.535 48.6193 130.564 49.2465 130.564 49.8779V107.251C130.564 107.883 130.535 108.512 130.479 109.139C130.422 109.767 130.339 110.388 130.228 111.006C130.114 111.625 129.977 112.236 129.81 112.838C129.644 113.443 129.45 114.035 129.231 114.618C129.012 115.2 128.768 115.769 128.498 116.326C128.226 116.88 127.934 117.42 127.614 117.946C127.295 118.469 126.955 118.974 126.591 119.462C126.229 119.95 125.843 120.415 125.439 120.862C125.033 121.308 124.608 121.73 124.167 122.131C123.723 122.529 123.264 122.905 122.786 123.254C122.311 123.605 121.82 123.929 121.314 124.226C120.809 124.523 120.292 124.793 119.762 125.034C119.233 125.275 118.693 125.487 118.145 125.67C117.596 125.852 117.041 126.006 116.48 126.129C115.917 126.251 115.351 126.345 114.781 126.407C114.21 126.467 113.638 126.498 113.066 126.498H22.171C21.597 126.498 21.0249 126.467 20.4546 126.407C19.8844 126.345 19.3179 126.251 18.7571 126.129C18.1945 126.006 17.6393 125.852 17.0918 125.67C16.5423 125.487 16.0042 125.275 15.4736 125.034C14.9449 124.793 14.4276 124.523 13.9215 124.226C13.4174 123.929 12.9264 123.605 12.4487 123.254C11.9729 122.905 11.5122 122.529 11.0704 122.131C10.6266 121.73 10.2037 121.308 9.79774 120.862C9.39178 120.415 9.00848 119.95 8.64406 119.462C8.28153 118.974 7.93977 118.469 7.62067 117.946C7.30345 117.42 7.0089 116.88 6.73889 116.326C6.46888 115.769 6.22341 115.2 6.00438 114.618C5.78536 114.035 5.59276 113.443 5.4266 112.838C5.26044 112.236 5.12072 111.625 5.00931 111.006C4.89791 110.388 4.81294 109.767 4.7563 109.139C4.70154 108.512 4.67322 107.883 4.67322 107.251V49.8779C4.67322 49.2465 4.70154 48.6193 4.7563 47.9899C4.81294 47.3627 4.89791 46.7417 5.00931 46.1228C5.12072 45.5038 5.26044 44.8932 5.4266 44.2909C5.59276 43.6865 5.78536 43.0946 6.00438 42.513C6.22341 41.9294 6.46888 41.3603 6.73889 40.8037C7.0089 40.2492 7.30345 39.7092 7.62067 39.1837C7.93977 38.6603 8.28153 38.1556 8.64406 37.6675C9.00848 37.1795 9.39178 36.7142 9.79774 36.2677C10.2037 35.8211 10.6266 35.3995 11.0704 34.9987C11.5122 34.5999 11.9729 34.224 12.4487 33.875C12.9264 33.524 13.4174 33.2 13.9215 32.903C14.4276 32.606 14.9449 32.336 15.4736 32.0951C16.0042 31.8542 16.5423 31.6423 17.0918 31.4596C17.6393 31.2768 18.1945 31.1231 18.7571 31.0006C19.3179 30.878 19.8844 30.7846 20.4546 30.7243C21.0249 30.662 21.597 30.6309 22.171 30.6309Z" fill="#DBE374"/>
</g>
<mask id="mask1_38_171" style="mask-type:luminance" maskUnits="userSpaceOnUse" x="6" y="65" width="124" height="62">
<path d="M6.52551 65H129.302V126.424H6.52551V65Z" fill="white"/>
</mask>
<g mask="url(#mask1_38_171)">
<path d="M128.853 115.513L81.9111 71.3679C81.422 70.8943 80.9141 70.4457 80.3873 70.022C79.8624 69.6004 79.3186 69.2037 78.7597 68.834C78.2027 68.4664 77.6287 68.1237 77.0434 67.8121C76.4561 67.5006 75.8576 67.2181 75.2477 66.9648C74.6378 66.7114 74.0185 66.4891 73.3916 66.2981C72.7628 66.107 72.1284 65.9471 71.4864 65.8204C70.8463 65.6916 70.2006 65.5961 69.5511 65.5317C68.9034 65.4673 68.252 65.4341 67.6006 65.4361C66.9491 65.4361 66.2977 65.4694 65.6501 65.5337C65.0005 65.6002 64.3548 65.6957 63.7147 65.8266C63.0727 65.9554 62.4383 66.1153 61.8114 66.3084C61.1826 66.4995 60.5652 66.7238 59.9553 66.9772C59.3454 67.2306 58.7469 67.5151 58.1616 67.8288C57.5743 68.1403 57.0022 68.483 56.4452 68.8527C55.8863 69.2224 55.3444 69.6191 54.8195 70.0428C54.2946 70.4686 53.7866 70.9172 53.2976 71.3907L6.85217 116.55C7.22792 117.299 7.6471 118.018 8.11159 118.708C8.57419 119.395 9.07645 120.047 9.62024 120.662C10.1622 121.277 10.7399 121.848 11.3517 122.378C11.9635 122.907 12.6036 123.391 13.2758 123.825C13.9461 124.261 14.639 124.646 15.3565 124.98C16.074 125.312 16.8085 125.593 17.56 125.819C18.3115 126.043 19.0725 126.214 19.8447 126.328C20.617 126.442 21.3912 126.498 22.171 126.498H113.066C113.887 126.498 114.707 126.434 115.521 126.307C116.334 126.178 117.137 125.989 117.928 125.738C118.717 125.485 119.488 125.173 120.237 124.801C120.987 124.432 121.71 124.004 122.405 123.52C123.1 123.036 123.761 122.5 124.388 121.914C125.014 121.329 125.6 120.697 126.145 120.02C126.691 119.343 127.19 118.627 127.645 117.873C128.098 117.117 128.5 116.332 128.853 115.513Z" fill="#A79B59"/>
</g>
<mask id="mask2_38_171" style="mask-type:luminance" maskUnits="userSpaceOnUse" x="9" y="70" width="118" height="57">
<path d="M9.42578 70.3169H126.402V126.423H9.42578V70.3169Z" fill="white"/>
</mask>
<g mask="url(#mask2_38_171)">
<path d="M126.178 120.004C125.36 121.028 124.454 121.944 123.459 122.754C122.464 123.562 121.401 124.247 120.271 124.808C119.144 125.366 117.973 125.79 116.763 126.075C115.553 126.359 114.327 126.5 113.091 126.498H22.1465C20.9947 126.502 19.8542 126.38 18.7251 126.133C17.5979 125.886 16.5008 125.518 15.4397 125.03C14.3766 124.542 13.3684 123.944 12.4167 123.235C11.4632 122.525 10.5814 121.719 9.77515 120.816L56.5057 75.3827C56.8852 75.013 57.2799 74.664 57.6877 74.3359C58.0955 74.0057 58.5166 73.6983 58.9509 73.4117C59.3852 73.123 59.8289 72.8571 60.2839 72.6141C60.739 72.3711 61.2054 72.1509 61.6774 71.9536C62.1514 71.7584 62.6328 71.5839 63.12 71.4365C63.6071 71.2869 64.1 71.1623 64.5984 71.0626C65.0969 70.9609 65.5973 70.8861 66.1014 70.8362C66.6056 70.7864 67.1116 70.7615 67.6176 70.7615C68.1237 70.7615 68.6297 70.7864 69.1338 70.8362C69.638 70.8861 70.1384 70.9609 70.6368 71.0626C71.1353 71.1623 71.6281 71.2869 72.1153 71.4365C72.6043 71.5839 73.0839 71.7584 73.5578 71.9536C74.0318 72.1509 74.4963 72.3711 74.9513 72.6141C75.4064 72.8571 75.852 73.123 76.2863 73.4117C76.7187 73.6983 77.1397 74.0057 77.5476 74.3359C77.9573 74.664 78.35 75.013 78.7296 75.3827L126.178 120.004Z" fill="#DBE374"/>
</g>
<path d="M113.066 30.6309H22.1711C21.4422 30.6309 20.7191 30.6807 19.9978 30.7804C19.2765 30.878 18.5628 31.0276 17.8585 31.2249C17.1523 31.4222 16.4631 31.6673 15.7853 31.958C15.1093 32.2509 14.4503 32.5894 13.8121 32.9716C13.1739 33.3537 12.5584 33.7795 11.9692 34.2447C11.3782 34.7121 10.8156 35.2188 10.2831 35.763C9.75063 36.3071 9.25026 36.8845 8.78199 37.4972C8.31561 38.1099 7.88511 38.7538 7.49048 39.4246L53.2618 82.1058C53.7584 82.569 54.272 83.0072 54.8026 83.4205C55.3351 83.8338 55.8807 84.2201 56.4434 84.5815C57.0061 84.9408 57.582 85.2752 58.1711 85.5785C58.7602 85.8838 59.3588 86.16 59.9705 86.4051C60.5823 86.6522 61.2016 86.8682 61.8285 87.0552C62.4573 87.2421 63.0917 87.3979 63.7337 87.5225C64.3738 87.6492 65.0176 87.7426 65.6672 87.8049C66.3148 87.8693 66.9644 87.9005 67.6158 87.9005C68.2653 87.9005 68.9148 87.8693 69.5644 87.8049C70.212 87.7426 70.8559 87.6492 71.4979 87.5225C72.138 87.3979 72.7724 87.2421 73.4012 87.0552C74.0299 86.8682 74.6492 86.6522 75.2591 86.4051C75.8709 86.16 76.4713 85.8838 77.0586 85.5785C77.6477 85.2752 78.2236 84.9408 78.7862 84.5815C79.3489 84.2201 79.8946 83.8338 80.4271 83.4205C80.9576 83.0072 81.4712 82.569 81.9678 82.1058L127.747 39.4246C127.352 38.7538 126.922 38.1099 126.453 37.4972C125.987 36.8845 125.487 36.3071 124.952 35.763C124.42 35.2188 123.859 34.7121 123.268 34.2447C122.677 33.7795 122.063 33.3537 121.425 32.9716C120.785 32.5894 120.128 32.2509 119.45 31.958C118.774 31.6673 118.083 31.4222 117.379 31.2249C116.674 31.0276 115.961 30.878 115.239 30.7804C114.518 30.6807 113.793 30.6309 113.066 30.6309Z" fill="#A79B59"/>
<path d="M124.595 35.3807L78.839 78.0453C78.452 78.4067 78.0498 78.7494 77.6344 79.0734C77.219 79.3974 76.7923 79.6985 76.3523 79.981C75.9124 80.2634 75.463 80.5231 75.0023 80.7619C74.5415 80.9987 74.0733 81.2147 73.5956 81.4078C73.1179 81.601 72.6326 81.7692 72.1417 81.9167C71.6507 82.0621 71.1541 82.1846 70.6538 82.2822C70.1515 82.3798 69.6493 82.4525 69.1413 82.5024C68.6353 82.5522 68.1274 82.5772 67.6176 82.5772C67.1097 82.5772 66.6017 82.5522 66.0938 82.5024C65.5878 82.4525 65.0837 82.3798 64.5833 82.2822C64.081 82.1846 63.5863 82.0621 63.0954 81.9167C62.6026 81.7692 62.1192 81.601 61.6415 81.4078C61.1638 81.2147 60.6955 80.9987 60.2348 80.7619C59.7741 80.5231 59.3247 80.2634 58.8848 79.981C58.4448 79.6985 58.0181 79.3974 57.6027 79.0734C57.1873 78.7494 56.7851 78.4067 56.3961 78.0453L10.6399 35.3807C11.4292 34.6185 12.2732 33.9414 13.1719 33.3474C14.0726 32.7534 15.0129 32.2549 15.9948 31.8478C16.9766 31.4428 17.9849 31.1375 19.0177 30.9319C20.0506 30.7284 21.091 30.6266 22.1408 30.6307H113.091C114.14 30.6266 115.181 30.7284 116.214 30.9319C117.246 31.1354 118.255 31.4407 119.239 31.8478C120.22 32.2528 121.163 32.7534 122.063 33.3474C122.962 33.9393 123.808 34.6185 124.595 35.3807Z" fill="#DBE374"/>
<path d="M113.066 30.6309H82.5304C82.3095 32.2903 82.1886 33.9602 82.1716 35.6384C82.1546 37.3165 82.2415 38.9885 82.4303 40.6542C82.6191 42.3199 82.908 43.9628 83.3008 45.5848C83.6916 47.2069 84.1807 48.7937 84.766 50.3431C85.3532 51.8925 86.033 53.3921 86.8033 54.8397C87.5737 56.2873 88.431 57.6727 89.3732 58.9936C90.3135 60.3125 91.3331 61.5586 92.4263 62.7279C93.5215 63.8952 94.6827 64.9793 95.9119 65.9742C97.1392 66.9711 98.4232 67.8704 99.7619 68.6742C101.101 69.4801 102.485 70.1821 103.908 70.7802C105.334 71.3784 106.79 71.8686 108.276 72.2507C109.762 72.6329 111.265 72.9029 112.783 73.0607C114.303 73.2186 115.825 73.2622 117.348 73.1937C118.874 73.1251 120.387 72.9444 121.889 72.6495C123.391 72.3546 124.869 71.9516 126.321 71.4366C127.773 70.9215 129.187 70.3025 130.564 69.5777V49.8779C130.564 49.2465 130.535 48.6193 130.479 47.9899C130.422 47.3627 130.339 46.7417 130.228 46.1228C130.114 45.5038 129.977 44.8932 129.81 44.2909C129.644 43.6865 129.45 43.0946 129.231 42.513C129.012 41.9294 128.768 41.3603 128.498 40.8037C128.226 40.2492 127.934 39.7092 127.614 39.1837C127.295 38.6603 126.955 38.1556 126.591 37.6675C126.229 37.1795 125.843 36.7142 125.439 36.2677C125.033 35.8211 124.608 35.3995 124.167 34.9987C123.723 34.5999 123.264 34.224 122.786 33.875C122.311 33.524 121.82 33.2 121.314 32.903C120.809 32.606 120.292 32.336 119.762 32.0951C119.233 31.8542 118.693 31.6423 118.145 31.4596C117.596 31.2768 117.041 31.1231 116.48 31.0006C115.917 30.878 115.351 30.7846 114.781 30.7243C114.21 30.662 113.638 30.6309 113.066 30.6309Z" fill="#A79B59"/>
<mask id="mask3_38_171" style="mask-type:luminance" maskUnits="userSpaceOnUse" x="86" y="4" width="60" height="65">
<path d="M86.7656 4.00024H145.254V68.1902H86.7656V4.00024Z" fill="white"/>
</mask>
<g mask="url(#mask3_38_171)">
<path d="M145.09 35.9561C145.09 37.0029 145.042 38.0476 144.95 39.0881C144.855 40.1307 144.716 41.1651 144.531 42.1911C144.346 43.2171 144.115 44.2306 143.838 45.2338C143.562 46.2349 143.241 47.2193 142.879 48.1851C142.514 49.153 142.108 50.098 141.659 51.0202C141.209 51.9444 140.722 52.8396 140.194 53.7098C139.665 54.58 139.098 55.4212 138.494 56.2291C137.892 57.0391 137.254 57.8138 136.58 58.5532C135.907 59.2926 135.203 59.9946 134.469 60.6592C133.732 61.3239 132.969 61.9449 132.178 62.5264C131.387 63.108 130.571 63.6459 129.733 64.1402C128.893 64.6324 128.034 65.079 127.156 65.4798C126.276 65.8807 125.381 66.2338 124.471 66.537C123.561 66.8402 122.639 67.0936 121.705 67.2992C120.772 67.5028 119.831 67.6565 118.885 67.7582C117.938 67.8621 116.99 67.9119 116.038 67.9119C115.086 67.9119 114.137 67.8621 113.191 67.7582C112.243 67.6565 111.303 67.5028 110.37 67.2992C109.437 67.0936 108.516 66.8402 107.604 66.537C106.693 66.2338 105.799 65.8807 104.92 65.4798C104.041 65.079 103.181 64.6324 102.343 64.1402C101.503 63.6459 100.689 63.108 99.8979 62.5264C99.1068 61.9449 98.3421 61.3239 97.6076 60.6592C96.8712 59.9946 96.1669 59.2926 95.4947 58.5532C94.8225 57.8138 94.1843 57.0391 93.5801 56.2291C92.9759 55.4212 92.4113 54.58 91.8826 53.7098C91.3539 52.8396 90.8649 51.9444 90.4155 51.0202C89.968 50.098 89.562 49.153 89.1976 48.1851C88.8332 47.2193 88.5122 46.2349 88.2365 45.2338C87.9609 44.2306 87.7305 43.2171 87.5436 42.1911C87.3585 41.1651 87.2188 40.1307 87.1263 39.0881C87.0319 38.0476 86.9866 37.0029 86.9866 35.9561C86.9866 34.9093 87.0319 33.8667 87.1263 32.8241C87.2188 31.7835 87.3585 30.7492 87.5436 29.7232C87.7305 28.6951 87.9609 27.6815 88.2365 26.6805C88.5122 25.6794 88.8332 24.6949 89.1976 23.727C89.562 22.7613 89.968 21.8163 90.4155 20.892C90.8649 19.9699 91.3539 19.0726 91.8826 18.2024C92.4113 17.3321 92.9759 16.4931 93.5801 15.683C94.1843 14.8751 94.8225 14.1004 95.4947 13.361C96.1669 12.6196 96.8712 11.9175 97.6076 11.255C98.3421 10.5904 99.1068 9.9673 99.8979 9.38576C100.689 8.80421 101.503 8.26628 102.343 7.77405C103.181 7.27974 104.041 6.83319 104.92 6.43234C105.799 6.03357 106.693 5.68049 107.604 5.37726C108.516 5.07195 109.437 4.81856 110.37 4.61502C111.303 4.4094 112.243 4.25778 113.191 4.15394C114.137 4.05217 115.086 4.00024 116.038 4.00024C116.99 4.00024 117.938 4.05217 118.885 4.15394C119.831 4.25778 120.772 4.4094 121.705 4.61502C122.639 4.81856 123.561 5.07195 124.471 5.37726C125.381 5.68049 126.276 6.03357 127.156 6.43234C128.034 6.83319 128.893 7.27974 129.733 7.77405C130.571 8.26628 131.387 8.80421 132.178 9.38576C132.969 9.9673 133.732 10.5904 134.469 11.255C135.203 11.9175 135.907 12.6196 136.58 13.361C137.254 14.1004 137.892 14.8751 138.494 15.683C139.098 16.4931 139.665 17.3321 140.194 18.2024C140.722 19.0726 141.209 19.9699 141.659 20.892C142.108 21.8163 142.514 22.7613 142.879 23.727C143.241 24.6949 143.562 25.6794 143.838 26.6805C144.115 27.6815 144.346 28.6951 144.531 29.7232C144.716 30.7492 144.855 31.7835 144.95 32.8241C145.042 33.8667 145.09 34.9093 145.09 35.9561Z" fill="#EEF0D1"/>
</g>
<path d="M103.402 23.5566C103.402 23.9658 103.438 24.3729 103.512 24.7737C103.584 25.1767 103.691 25.5671 103.835 25.9451C103.976 26.3252 104.152 26.6845 104.358 27.0251C104.565 27.3658 104.801 27.6815 105.064 27.9722C105.328 28.2609 105.613 28.5205 105.925 28.7469C106.235 28.9754 106.561 29.1665 106.905 29.3243C107.25 29.4801 107.605 29.5985 107.97 29.6795C108.336 29.7584 108.704 29.7979 109.076 29.7979H112.483V51.0201C112.481 51.4292 112.518 51.8342 112.59 52.2371C112.662 52.638 112.77 53.0285 112.913 53.4085C113.055 53.7865 113.23 54.1459 113.436 54.4865C113.644 54.8292 113.88 55.1428 114.142 55.4336C114.407 55.7223 114.694 55.9819 115.003 56.2103C115.313 56.4367 115.64 56.6299 115.983 56.7857C116.329 56.9435 116.684 57.0619 117.048 57.1408C117.415 57.2218 117.783 57.2613 118.157 57.2613C118.529 57.2613 118.897 57.2218 119.263 57.1408C119.629 57.0619 119.984 56.9435 120.328 56.7857C120.672 56.6299 120.998 56.4367 121.31 56.2103C121.619 55.9819 121.905 55.7223 122.169 55.4336C122.433 55.1428 122.667 54.8292 122.875 54.4865C123.081 54.1459 123.257 53.7865 123.398 53.4085C123.542 53.0285 123.649 52.638 123.721 52.2371C123.795 51.8342 123.831 51.4292 123.831 51.0201V22.3084C123.831 21.9802 123.8 21.6562 123.744 21.3343C123.685 21.0124 123.598 20.7008 123.485 20.3976C123.37 20.0944 123.23 19.8078 123.066 19.5336C122.9 19.2615 122.711 19.0102 122.501 18.7776C122.29 18.5471 122.059 18.3394 121.812 18.1566C121.565 17.9738 121.302 17.8201 121.028 17.6955C120.753 17.5709 120.468 17.4754 120.177 17.411C119.884 17.3466 119.588 17.3154 119.291 17.3154H109.076C108.704 17.3154 108.336 17.3549 107.97 17.4338C107.605 17.5148 107.25 17.6332 106.905 17.789C106.561 17.9468 106.235 18.1379 105.925 18.3664C105.613 18.5948 105.328 18.8524 105.064 19.1431C104.801 19.4318 104.565 19.7475 104.358 20.0881C104.152 20.4288 103.976 20.7902 103.835 21.1682C103.691 21.5462 103.584 21.9366 103.512 22.3396C103.438 22.7404 103.402 23.1475 103.402 23.5566Z" fill="#929937"/>
</svg>
