<svg width="358" height="339" viewBox="0 0 358 339" fill="none" xmlns="http://www.w3.org/2000/svg">
<mask id="mask0_29_155" style="mask-type:luminance" maskUnits="userSpaceOnUse" x="10" y="12" width="338" height="311">
<path d="M10.4994 12.8184H347.495V322.791H10.4994V12.8184Z" fill="white"/>
</mask>
<g mask="url(#mask0_29_155)">
<path d="M260.659 323.05H260.653C242.829 323.05 228.878 309.87 228.212 292.386C228.206 292.208 228.201 292.025 228.201 291.841L228.195 282.7C228.195 277.074 229.749 271.669 232.535 266.966C227.307 269.055 221.713 270.151 215.998 270.151C215.948 270.151 215.043 270.135 214.832 270.135C206.17 270.108 197.668 267.63 190.393 263.078C184.705 267.576 177.502 270.081 169.927 270.081C165.177 270.081 160.532 269.104 156.303 267.225C152.091 269.104 147.452 270.081 142.707 270.081C132.635 270.081 123.667 265.891 117.707 258.84C111.736 265.891 102.802 270.081 92.8019 270.081C74.9718 270.081 61.0263 256.901 60.3603 239.418C60.3548 239.234 60.3548 239.051 60.3548 238.867L60.3492 185.59C60.3492 179.251 62.286 173.15 65.8764 167.972C62.519 163.075 60.5934 157.249 60.3603 151.136C60.3548 150.958 60.3548 150.769 60.3548 150.591L60.3492 127.8C57.9297 128.421 55.4214 128.788 52.8687 128.88C52.6745 128.885 52.4858 128.891 52.2971 128.891H42.9021C42.73 128.891 42.5525 128.885 42.3749 128.88C24.1952 128.254 10.4994 114.679 10.4994 97.3092C10.4994 86.3753 16.1098 76.5698 25.0886 70.8788C21.4649 65.7061 19.5171 59.5885 19.5171 53.174C19.5171 44.74 22.8967 36.8082 29.0287 30.8364C35.1607 24.8754 43.3072 21.5871 51.9753 21.5871C58.5901 21.5871 64.8997 23.4985 70.2493 27.0513C76.1039 18.2988 86.1648 12.8184 97.3468 12.8184C115.171 12.8184 129.117 25.9985 129.788 43.4819C129.794 43.6601 129.799 43.8437 129.799 44.0273L129.805 53.1632C129.805 58.2873 128.562 63.2062 126.22 67.6175C127.163 67.9415 128.09 68.3033 129 68.7082C133.246 66.786 137.924 65.7817 142.707 65.7817C147.446 65.7817 152.08 66.759 156.298 68.6272C160.537 66.7212 165.188 65.7223 169.927 65.7223C175.576 65.7223 180.992 67.11 185.815 69.7557C187.851 68.6434 190.01 67.7525 192.269 67.083C195.332 66.1867 198.495 65.7331 201.68 65.7331C208.24 65.7331 214.533 67.6229 219.86 71.1326C225.148 67.6553 231.419 65.7817 237.979 65.7817C255.803 65.7817 269.749 78.9618 270.415 96.4453C270.42 96.6289 270.426 96.8124 270.426 96.996L270.431 150.278C270.431 151.531 270.359 152.778 270.209 154.009L278.8 154.004C278.988 154.004 279.177 154.009 279.366 154.014C297.512 154.652 311.202 168.226 311.202 185.585C311.202 193.754 308 201.438 302.479 207.183C303.361 207.086 304.249 207.021 305.142 206.989C305.348 206.983 305.52 206.978 305.697 206.978L315.092 206.972C315.281 206.972 315.47 206.978 315.653 206.983C333.805 207.62 347.495 221.195 347.495 238.554C347.495 249.488 341.879 259.299 332.906 264.979C336.53 270.162 338.477 276.28 338.477 282.694C338.477 291.134 335.092 299.066 328.949 305.037C322.85 310.993 314.704 314.276 306.014 314.276C299.404 314.276 293.095 312.364 287.751 308.812C281.896 317.57 271.841 323.05 260.659 323.05Z" fill="#F9E7BD"/>
</g>
<path d="M344.876 235.141C344.876 221.06 333.722 210.05 318.933 209.526C318.816 209.526 318.711 209.521 318.6 209.521L309.205 209.526C309.094 209.526 308.988 209.532 308.877 209.537C303.7 209.721 298.977 211.227 295.031 213.711V204.591C303.272 200.201 308.589 191.778 308.589 182.173C308.589 168.091 297.429 157.081 282.64 156.558C282.529 156.558 282.418 156.558 282.307 156.558C282.307 156.558 273.528 156.558 265.881 156.558C267.129 153.555 267.812 150.278 267.812 146.866L267.806 93.5836C267.806 93.4702 267.806 93.3622 267.801 93.2488C267.257 79.0428 255.942 68.3303 241.486 68.3303C234.455 68.3303 228.084 70.9598 223.367 75.355C218.528 70.8572 212.046 68.2817 205.187 68.2817C202.607 68.2817 200.043 68.6489 197.551 69.3778C194.533 70.2687 191.752 71.6564 189.311 73.4544C184.843 70.1553 179.316 68.2763 173.428 68.2763C168.534 68.2763 163.861 69.5614 159.821 71.9425C155.798 69.5992 151.131 68.3303 146.214 68.3303C141.264 68.3303 136.57 69.6316 132.535 72.0397C128.629 69.7611 124.106 68.4491 119.328 68.2817C119.222 68.2763 119.122 68.2763 119.023 68.2763C124.045 63.6058 127.186 57.0346 127.186 49.7561L127.175 40.6148C127.175 40.5069 127.175 40.3989 127.169 40.2855C126.625 26.0795 115.316 15.3669 100.854 15.3669C88.9562 15.3669 79.2004 22.694 75.7986 33.2932L74.1005 31.6355C69.1283 26.7976 62.5135 24.1357 55.488 24.1357C48.457 24.1357 41.8421 26.803 36.8699 31.6409C31.8921 36.4842 29.1508 42.915 29.1508 49.7615C29.1508 56.6081 31.8921 63.0442 36.8644 67.8713L38.5125 69.475C27.658 72.7309 20.1331 82.2663 20.1331 93.8968C20.1331 107.989 31.2928 118.999 46.0874 119.512C46.1928 119.512 46.3038 119.517 46.4148 119.517H55.8043C55.9208 119.517 56.0318 119.512 56.1484 119.506C61.3204 119.323 66.0429 117.811 69.9829 115.322L69.9885 147.173C69.9885 147.287 69.9885 147.395 69.994 147.503C70.2493 154.236 72.9241 160.181 77.2026 164.576C72.7354 169.171 69.9829 175.364 69.9829 182.178L69.9885 235.455C69.9885 235.563 69.9885 235.676 69.994 235.784C70.5323 249.995 81.8474 260.708 96.3091 260.708C108.051 260.708 117.713 253.57 121.231 243.197C124.688 253.559 134.4 260.708 146.214 260.708C151.131 260.708 155.798 259.439 159.81 257.085C163.834 259.439 168.512 260.708 173.434 260.708C181.486 260.708 188.567 257.349 193.351 251.89C200.282 257.495 209.078 260.74 218.395 260.762L219.505 260.778C229.66 260.778 239.327 256.761 246.819 249.461C248.545 252.004 250.731 254.207 253.261 255.967C244.172 260.011 237.829 268.937 237.829 279.282L237.834 288.429C237.834 288.537 237.84 288.645 237.845 288.758C238.384 302.964 249.699 313.677 264.16 313.677H264.166C276.058 313.677 285.82 306.344 289.216 295.745L290.886 297.37C295.858 302.23 302.479 304.902 309.521 304.902C316.569 304.902 323.183 302.235 328.133 297.403C333.111 292.565 335.858 286.128 335.858 279.277C335.858 272.43 333.117 265.994 328.139 261.161L326.496 259.563C337.351 256.302 344.876 246.772 344.876 235.141Z" fill="#F9E7BD"/>
<path d="M118.995 85.6517C130.216 86.0621 130.221 101.737 118.995 102.142H104.777V116.553H114.461C125.682 116.952 125.687 132.632 114.461 133.037H104.777V146.865C104.372 157.778 88.2569 157.794 87.8407 146.865V93.8967C87.8407 89.345 91.6309 85.6517 96.309 85.6517H118.995ZM137.746 93.8967C138.157 82.9844 154.266 82.9736 154.683 93.8967V133.626C154.927 140.235 164.721 140.24 164.96 133.626V93.8967C164.96 89.345 168.756 85.6517 173.428 85.6517C178.112 85.6517 181.902 89.345 181.902 93.8967V133.626C180.798 162.07 138.861 162.092 137.746 133.626V93.8967ZM196.719 93.8967C196.719 90.2683 199.155 87.061 202.729 86.0135C206.303 84.9552 210.165 86.2997 212.241 89.3234L233.012 119.647V93.8967C233.422 82.9844 249.532 82.9736 249.954 93.8967V146.865C249.954 150.499 247.507 153.701 243.933 154.754C243.123 154.992 242.296 155.105 241.48 155.105C238.7 155.105 236.031 153.771 234.432 151.439L213.661 121.115V146.865C213.251 157.778 197.135 157.794 196.719 146.865V93.8967ZM79.1726 93.8967L79.1782 147.173C79.5333 156.477 86.8973 163.49 96.309 163.49C105.732 163.49 113.096 156.477 113.451 146.865V141.461H114.777C121.004 141.239 126.187 138.102 129.078 133.421V133.945C129.838 153.28 145.116 163.404 159.821 163.404C171.27 163.404 183.029 157.249 188.057 145.267V147.173C188.412 156.477 195.776 163.49 205.187 163.49C213.983 163.49 220.986 157.378 222.168 148.744L227.213 156.104C230.398 160.764 235.731 163.539 241.48 163.539C243.156 163.539 244.821 163.301 246.447 162.826C253.728 160.688 258.622 154.268 258.622 146.865L258.617 93.5836C258.261 84.2857 250.892 77.2718 241.486 77.2718C232.69 77.2718 225.687 83.384 224.505 92.0177L219.449 84.642C216.264 79.9931 210.931 77.2232 205.187 77.2232C203.506 77.2232 201.83 77.4661 200.221 77.9359C195.093 79.4478 191.197 83.0924 189.316 87.6927C186.775 81.5697 180.626 77.2178 173.428 77.2178C167.896 77.2178 162.962 79.7825 159.827 83.7565C156.719 79.7717 151.836 77.2718 146.214 77.2718C140.582 77.2718 135.721 79.8149 132.613 83.8915C129.572 79.9931 124.766 77.4176 118.995 77.2178H96.309C86.864 77.2178 79.1726 84.7014 79.1726 93.8967Z" fill="black"/>
<path d="M218.794 243.386C206.619 243.386 196.719 233.743 196.719 221.902V195.417C197.829 166.968 239.765 166.951 240.881 195.417C240.881 199.969 237.085 203.657 232.407 203.657C227.729 203.657 223.939 199.969 223.939 195.417C223.939 192.658 221.63 190.418 218.794 190.418C215.964 190.418 213.661 192.658 213.661 195.417V221.902C213.894 228.516 223.694 228.516 223.939 221.902C223.939 217.345 227.729 213.657 232.407 213.657C249.554 215.109 238.75 244.083 218.794 243.386ZM181.902 235.141C181.492 246.059 165.376 246.064 164.96 235.141V225.725H154.683V235.141C154.272 246.059 138.157 246.064 137.746 235.141V195.417C137.746 183.571 147.646 173.933 159.821 173.933C171.997 173.933 181.902 183.571 181.902 195.417V235.141ZM118.995 190.418H104.777V204.829H114.461C125.682 205.234 125.687 220.908 114.461 221.313H104.777V235.141C104.372 246.059 88.2569 246.064 87.8407 235.141V182.173C87.8407 177.626 91.6309 173.933 96.309 173.933H118.995C130.216 174.338 130.221 190.013 118.995 190.418ZM255.087 173.933H282.307C293.522 174.338 293.539 190.013 282.307 190.418H277.174V235.141C276.752 246.059 260.642 246.064 260.231 235.141V190.418H255.087C243.872 190.013 243.861 174.338 255.087 173.933ZM242.806 208.646C246.236 206.065 248.544 202.183 249.233 197.728C249.987 197.993 250.753 198.247 251.558 198.42L251.563 235.449C251.918 244.752 259.282 251.766 268.694 251.766C278.111 251.766 285.481 244.752 285.842 235.141V198.463C293.761 196.821 299.393 190.272 299.393 182.173C299.393 173.01 292.185 165.845 282.307 165.499L254.765 165.504C248.378 165.731 243.106 169.046 240.265 173.928C234.41 168.463 226.536 165.634 218.805 165.634C206.253 165.634 193.317 173.026 189.305 187.394C185.676 174.808 173.906 165.499 159.821 165.499C149.794 165.499 140.959 170.261 135.343 177.507C133.345 170.699 127.102 165.78 118.995 165.499H96.309C86.864 165.499 79.1726 172.977 79.1726 182.178L79.1782 235.454C79.5333 244.752 86.8973 251.766 96.309 251.766C105.732 251.766 113.096 244.752 113.451 235.141V229.747H114.783C121.004 229.52 126.187 226.378 129.078 221.702V235.454C129.433 244.752 136.803 251.766 146.214 251.766C151.819 251.766 156.692 249.288 159.799 245.249C162.907 249.256 167.801 251.766 173.428 251.766H173.434C182.851 251.766 190.215 244.752 190.57 235.141V233.727C195.282 244.353 206.07 251.815 218.473 251.815L219.505 251.831C236.502 251.831 249.005 237.01 249.593 223.705C249.887 217.258 247.335 211.913 242.806 208.646Z" fill="black"/>
<path d="M154.683 195.417V209.245H164.96V195.417C164.722 188.803 154.927 188.792 154.683 195.417Z" fill="black"/>
<path d="M272.634 288.105C272.218 299.022 256.103 299.033 255.687 288.105V279.277C255.687 274.725 259.482 271.037 264.166 271.037C268.839 271.037 272.634 274.725 272.634 279.277V288.105ZM264.166 262.603C254.71 262.603 247.024 270.081 247.024 279.277V288.423C247.385 297.721 254.749 304.735 264.16 304.735H264.166C273.578 304.735 280.947 297.721 281.302 288.11V279.277C281.302 270.081 273.617 262.603 264.166 262.603Z" fill="black"/>
<path d="M92.3801 40.9281C92.7907 30.0158 108.906 30.005 109.322 40.9281V49.7617C109.322 54.308 105.526 57.9959 100.848 57.9959C96.1703 57.9959 92.3801 54.308 92.3801 49.7617V40.9281ZM100.848 66.4352C110.299 66.4352 117.996 58.957 117.996 49.7617L117.985 40.6204C117.63 31.3171 110.266 24.3086 100.854 24.3086C91.4367 24.3086 84.0671 31.3171 83.7064 40.9281V49.7617C83.7064 58.957 91.3978 66.4352 100.848 66.4352Z" fill="black"/>
<path d="M318.6 243.386H309.526C298.306 242.981 298.3 227.301 309.526 226.902H318.6C329.815 227.301 329.826 242.981 318.6 243.386ZM318.6 218.468L309.21 218.473C299.649 218.813 292.44 225.978 292.44 235.136C292.434 244.299 299.643 251.469 309.526 251.82H318.6C318.705 251.82 318.81 251.82 318.921 251.815C328.483 251.469 335.686 244.304 335.686 235.141C335.686 225.978 328.477 218.813 318.6 218.468Z" fill="black"/>
<path d="M55.4881 102.142H46.4149C35.1941 101.737 35.183 86.0621 46.4149 85.6517H55.4881C66.7033 86.0621 66.7144 101.737 55.4881 102.142ZM55.4881 77.2178L46.0875 77.2232C36.5315 77.5687 29.3229 84.7392 29.3229 93.8967C29.3229 103.06 36.537 110.235 46.4149 110.57H55.4881C55.5935 110.57 55.7045 110.57 55.8044 110.57C65.3659 110.225 72.5746 103.06 72.5746 93.8967C72.5746 84.7392 65.3659 77.5633 55.4881 77.2178Z" fill="black"/>
<path d="M315.509 285.108C312.207 288.321 306.84 288.326 303.539 285.108L294.46 276.28C291.152 273.062 291.152 267.846 294.46 264.622C297.767 261.404 303.134 261.404 306.441 264.622L315.509 273.456C318.827 276.674 318.827 281.89 315.509 285.108ZM312.567 258.656C309.338 255.508 305.031 253.775 300.453 253.775C295.869 253.775 291.569 255.508 288.328 258.656C281.646 265.162 281.646 275.74 288.328 282.246L297.395 291.058C300.631 294.217 304.937 295.961 309.521 295.961C314.105 295.961 318.411 294.222 321.635 291.074C324.881 287.921 326.668 283.737 326.668 279.277C326.668 274.817 324.881 270.632 321.641 267.49L312.567 258.656Z" fill="black"/>
<path d="M70.5434 64.4156C67.2359 67.6337 61.8753 67.6337 58.5734 64.4156L49.5002 55.5875C46.1872 52.3694 46.1872 47.1481 49.5002 43.93C52.8076 40.7066 58.1683 40.7066 61.4757 43.93L70.5434 52.7582C73.8563 55.9763 73.8563 61.1975 70.5434 64.4156ZM76.6754 46.7918L67.6078 37.9636C64.3669 34.8157 60.0662 33.0825 55.488 33.0825C50.9097 33.0825 46.6034 34.8157 43.3682 37.9636C40.1329 41.1115 38.3405 45.3015 38.3405 49.7615C38.3405 54.216 40.1329 58.406 43.3682 61.5485L52.4358 70.3766C55.6766 73.5299 59.9774 75.2685 64.5556 75.2685C69.1338 75.2685 73.4401 73.5299 76.6754 70.3766C83.3568 63.8757 83.3624 53.2981 76.6754 46.7918Z" fill="black"/>
</svg>
