<svg width="157" height="141" viewBox="0 0 157 141" fill="none" xmlns="http://www.w3.org/2000/svg">
<mask id="mask0_42_313" style="mask-type:luminance" maskUnits="userSpaceOnUse" x="10" y="2" width="141" height="135">
<path d="M10.6492 2.57593H150.356V136.591H10.6492V2.57593Z" fill="white"/>
</mask>
<g mask="url(#mask0_42_313)">
<path d="M121.786 62.2353C99.4167 49.494 62.0202 48.1526 40.6981 54.5233C37.2045 55.5282 33.7085 53.5183 32.6609 50.499C31.6109 47.1477 33.7085 43.7941 36.8537 42.7892C61.6694 35.7478 102.562 37.0892 128.428 51.8404C131.573 53.5183 132.62 57.5403 130.874 60.5574C129.124 62.906 124.932 63.911 121.786 62.2353ZM121.087 81.0108C119.34 83.3571 116.193 84.3621 113.747 82.6864C94.8731 71.623 66.213 68.2695 44.1941 74.9743C41.3973 75.6451 38.2521 74.3036 37.5529 71.623C36.8537 68.9402 38.2521 65.9231 41.0489 65.2524C66.5638 57.8768 98.0183 61.5646 119.689 74.3036C121.786 75.3108 122.834 78.6621 121.087 81.0108ZM112.699 99.4497C111.301 101.462 108.855 102.133 106.757 100.791C90.3295 91.0669 69.709 89.0571 45.2418 94.4205C42.7957 95.0912 40.6981 93.4156 39.9989 91.4034C39.2997 89.0571 41.0489 87.0449 43.1465 86.3742C69.709 80.6743 92.7755 83.0206 110.95 93.7498C113.398 94.757 113.747 97.4376 112.699 99.4497ZM80.5431 2.55542C71.3634 2.55542 62.2738 4.29018 53.7933 7.65967C45.3129 11.0292 37.6051 15.9697 31.1156 22.1948C18.0061 34.7702 10.642 51.8268 10.642 69.6109C10.642 87.3951 18.0061 104.449 31.1156 117.025C37.6051 123.252 45.3129 128.19 53.7933 131.56C62.2738 134.932 71.3634 136.666 80.5431 136.666C99.0825 136.666 116.864 129.6 129.973 117.025C143.08 104.449 150.446 87.3951 150.446 69.6109C150.446 60.8052 148.638 52.0859 145.125 43.9487C141.613 35.8137 136.462 28.4222 129.973 22.1948C123.481 15.9697 115.776 11.0292 107.295 7.65967C98.8123 4.29018 89.7227 2.55542 80.5431 2.55542Z" fill="#638906"/>
</g>
</svg>
